999
"DXF R12 Output" (www.mydxf.blogspot.com)
 0 
SECTION
 2 
HEADER
 9 
$ACADVER
 1 
AC1009
 9 
$EXTMIN
 10 
 0 
 20 
 0 
 9 
$EXTMAX
 10 
 8.5 
 20 
 11 
 0 
ENDSEC
 0 
SECTION
 2 
ENTITIES
0
LINE
8
Extracted
10
7567.800000
20
224.854000
11
7585.533000
21
225.785230
0
LINE
8
Extracted
10
7585.533000
20
225.785230
11
7592.702750
21
226.366885
0
LINE
8
Extracted
10
7592.702750
20
226.366885
11
7598.845000
21
227.145910
0
LINE
8
Extracted
10
7598.845000
20
227.145910
11
7604.041250
21
228.212306
0
LINE
8
Extracted
10
7604.041250
20
228.212306
11
7606.308812
21
228.881395
0
LINE
8
Extracted
10
7606.308812
20
228.881395
11
7608.369000
21
229.656080
0
LINE
8
Extracted
10
7608.369000
20
229.656080
11
7610.232547
21
230.547611
0
LINE
8
Extracted
10
7610.232547
20
230.547611
11
7611.908875
21
231.567237
0
LINE
8
Extracted
10
7611.908875
20
231.567237
11
7613.408016
21
232.726211
0
LINE
8
Extracted
10
7613.408016
20
232.726211
11
7614.740000
21
234.035780
0
LINE
8
Extracted
10
7614.740000
20
234.035780
11
7615.913906
21
235.507203
0
LINE
8
Extracted
10
7615.913906
20
235.507203
11
7616.940250
21
237.151724
0
LINE
8
Extracted
10
7616.940250
20
237.151724
11
7617.828969
21
238.980592
0
LINE
8
Extracted
10
7617.828969
20
238.980592
11
7618.590000
21
241.005060
0
LINE
8
Extracted
10
7618.590000
20
241.005060
11
7619.233281
21
243.236385
0
LINE
8
Extracted
10
7619.233281
20
243.236385
11
7619.768750
21
245.685810
0
LINE
8
Extracted
10
7619.768750
20
245.685810
11
7620.556000
21
251.283960
0
LINE
8
Extracted
10
7620.556000
20
251.283960
11
7621.029625
21
257.889537
0
LINE
8
Extracted
10
7621.029625
20
257.889537
11
7621.270000
21
265.592560
0
LINE
8
Extracted
10
7621.270000
20
265.592560
11
7621.370000
21
284.650860
0
LINE
8
Extracted
10
7621.370000
20
284.650860
11
7621.370000
21
2031.030000
0
LINE
8
Extracted
10
7621.370000
20
2031.030000
11
7621.883469
21
2040.616239
0
LINE
8
Extracted
10
7621.883469
20
2040.616239
11
7622.779250
21
2049.935188
0
LINE
8
Extracted
10
7622.779250
20
2049.935188
11
7624.039906
21
2059.003617
0
LINE
8
Extracted
10
7624.039906
20
2059.003617
11
7625.648000
21
2067.838300
0
LINE
8
Extracted
10
7625.648000
20
2067.838300
11
7627.586109
21
2076.456008
0
LINE
8
Extracted
10
7627.586109
20
2076.456008
11
7629.836875
21
2084.873512
0
LINE
8
Extracted
10
7629.836875
20
2084.873512
11
7632.382953
21
2093.107586
0
LINE
8
Extracted
10
7632.382953
20
2093.107586
11
7635.207000
21
2101.175000
0
LINE
8
Extracted
10
7635.207000
20
2101.175000
11
7638.291469
21
2109.092587
0
LINE
8
Extracted
10
7638.291469
20
2109.092587
11
7641.618750
21
2116.877050
0
LINE
8
Extracted
10
7641.618750
20
2116.877050
11
7645.171406
21
2124.545187
0
LINE
8
Extracted
10
7645.171406
20
2124.545187
11
7648.932000
21
2132.113800
0
LINE
8
Extracted
10
7648.932000
20
2132.113800
11
7652.883266
21
2139.599648
0
LINE
8
Extracted
10
7652.883266
20
2139.599648
11
7657.007875
21
2147.019487
0
LINE
8
Extracted
10
7657.007875
20
2147.019487
11
7665.707000
21
2161.728300
0
LINE
8
Extracted
10
7665.707000
20
2161.728300
11
10458.907000
21
6728.318300
0
LINE
8
Extracted
10
10458.907000
20
6728.318300
11
10462.412828
21
6734.401248
0
LINE
8
Extracted
10
10462.412828
20
6734.401248
11
10465.551625
21
6740.146913
0
LINE
8
Extracted
10
10465.551625
20
6740.146913
11
10468.329859
21
6745.564620
0
LINE
8
Extracted
10
10468.329859
20
6745.564620
11
10470.754000
21
6750.663700
0
LINE
8
Extracted
10
10470.754000
20
6750.663700
11
10472.831297
21
6755.453464
0
LINE
8
Extracted
10
10472.831297
20
6755.453464
11
10474.567625
21
6759.943237
0
LINE
8
Extracted
10
10474.567625
20
6759.943237
11
10475.969641
21
6764.142367
0
LINE
8
Extracted
10
10475.969641
20
6764.142367
11
10477.044000
21
6768.060200
0
LINE
8
Extracted
10
10477.044000
20
6768.060200
11
10477.797141
21
6771.706077
0
LINE
8
Extracted
10
10477.797141
20
6771.706077
11
10478.235375
21
6775.089313
0
LINE
8
Extracted
10
10478.235375
20
6775.089313
11
10478.365172
21
6778.219217
0
LINE
8
Extracted
10
10478.365172
20
6778.219217
11
10478.193000
21
6781.105100
0
LINE
8
Extracted
10
10478.193000
20
6781.105100
11
10477.726266
21
6783.756369
0
LINE
8
Extracted
10
10477.726266
20
6783.756369
11
10476.970875
21
6786.182300
0
LINE
8
Extracted
10
10476.970875
20
6786.182300
11
10475.933297
21
6788.392231
0
LINE
8
Extracted
10
10475.933297
20
6788.392231
11
10474.620000
21
6790.395500
0
LINE
8
Extracted
10
10474.620000
20
6790.395500
11
10473.037484
21
6792.201425
0
LINE
8
Extracted
10
10473.037484
20
6792.201425
11
10471.192375
21
6793.819325
0
LINE
8
Extracted
10
10471.192375
20
6793.819325
11
10469.091328
21
6795.258537
0
LINE
8
Extracted
10
10469.091328
20
6795.258537
11
10466.741000
21
6796.528400
0
LINE
8
Extracted
10
10466.741000
20
6796.528400
11
10464.147672
21
6797.638308
0
LINE
8
Extracted
10
10464.147672
20
6797.638308
11
10461.317625
21
6798.597512
0
LINE
8
Extracted
10
10461.317625
20
6798.597512
11
10458.257516
21
6799.415361
0
LINE
8
Extracted
10
10458.257516
20
6799.415361
11
10454.974000
21
6800.101200
0
LINE
8
Extracted
10
10454.974000
20
6800.101200
11
10447.763125
21
6801.114050
0
LINE
8
Extracted
10
10447.763125
20
6801.114050
11
10439.737000
21
6801.710800
0
LINE
8
Extracted
10
10439.737000
20
6801.710800
11
10430.946625
21
6801.966025
0
LINE
8
Extracted
10
10430.946625
20
6801.966025
11
10421.446000
21
6801.954400
0
LINE
8
Extracted
10
10421.446000
20
6801.954400
11
7903.876000
21
6801.931400
0
LINE
8
Extracted
10
7903.876000
20
6801.931400
11
7896.560000
21
6801.897387
0
LINE
8
Extracted
10
7896.560000
20
6801.897387
11
7890.168000
21
6801.713300
0
LINE
8
Extracted
10
7890.168000
20
6801.713300
11
7884.625500
21
6801.367087
0
LINE
8
Extracted
10
7884.625500
20
6801.367087
11
7879.857000
21
6800.847100
0
LINE
8
Extracted
10
7879.857000
20
6800.847100
11
7875.787500
21
6800.141487
0
LINE
8
Extracted
10
7875.787500
20
6800.141487
11
7872.342000
21
6799.238700
0
LINE
8
Extracted
10
7872.342000
20
6799.238700
11
7869.445000
21
6798.126812
0
LINE
8
Extracted
10
7869.445000
20
6798.126812
11
7867.022000
21
6796.794200
0
LINE
8
Extracted
10
7867.022000
20
6796.794200
11
7864.997500
21
6795.229187
0
LINE
8
Extracted
10
7864.997500
20
6795.229187
11
7863.297000
21
6793.419900
0
LINE
8
Extracted
10
7863.297000
20
6793.419900
11
7861.843875
21
6791.354775
0
LINE
8
Extracted
10
7861.843875
20
6791.354775
11
7860.564000
21
6789.021900
0
LINE
8
Extracted
10
7860.564000
20
6789.021900
11
7859.382750
21
6786.409625
0
LINE
8
Extracted
10
7859.382750
20
6786.409625
11
7858.224000
21
6783.506200
0
LINE
8
Extracted
10
7858.224000
20
6783.506200
11
7855.676000
21
6776.779000
0
LINE
8
Extracted
10
7855.676000
20
6776.779000
11
7837.442217
21
6725.258144
0
LINE
8
Extracted
10
7837.442217
20
6725.258144
11
7819.218734
21
6673.122680
0
LINE
8
Extracted
10
7819.218734
20
6673.122680
11
7782.749375
21
6567.541062
0
LINE
8
Extracted
10
7782.749375
20
6567.541062
11
7746.161328
21
6461.100414
0
LINE
8
Extracted
10
7746.161328
20
6461.100414
11
7709.348000
21
6354.867000
0
LINE
8
Extracted
10
7709.348000
20
6354.867000
11
7690.823545
21
6302.161214
0
LINE
8
Extracted
10
7690.823545
20
6302.161214
11
7672.202797
21
6249.907086
0
LINE
8
Extracted
10
7672.202797
20
6249.907086
11
7653.472432
21
6198.237899
0
LINE
8
Extracted
10
7653.472432
20
6198.237899
11
7634.619125
21
6147.286937
0
LINE
8
Extracted
10
7634.619125
20
6147.286937
11
7615.629553
21
6097.187483
0
LINE
8
Extracted
10
7615.629553
20
6097.187483
11
7596.490391
21
6048.072820
0
LINE
8
Extracted
10
7596.490391
20
6048.072820
11
7586.860550
21
6023.926436
0
LINE
8
Extracted
10
7586.860550
20
6023.926436
11
7577.188314
21
6000.076231
0
LINE
8
Extracted
10
7577.188314
20
6000.076231
11
7567.472020
21
5976.538866
0
LINE
8
Extracted
10
7567.472020
20
5976.538866
11
7557.710000
21
5953.331000
0
LINE
8
Extracted
10
7557.710000
20
5953.331000
11
7540.365884
21
5913.749652
0
LINE
8
Extracted
10
7540.365884
20
5913.749652
11
7522.800546
21
5874.268296
0
LINE
8
Extracted
10
7522.800546
20
5874.268296
11
7505.020755
21
5834.884217
0
LINE
8
Extracted
10
7505.020755
20
5834.884217
11
7487.033277
21
5795.594697
0
LINE
8
Extracted
10
7487.033277
20
5795.594697
11
7468.844880
21
5756.397021
0
LINE
8
Extracted
10
7468.844880
20
5756.397021
11
7450.462331
21
5717.288472
0
LINE
8
Extracted
10
7450.462331
20
5717.288472
11
7431.892396
21
5678.266334
0
LINE
8
Extracted
10
7431.892396
20
5678.266334
11
7413.141844
21
5639.327891
0
LINE
8
Extracted
10
7413.141844
20
5639.327891
11
7394.217441
21
5600.470425
0
LINE
8
Extracted
10
7394.217441
20
5600.470425
11
7375.125955
21
5561.691221
0
LINE
8
Extracted
10
7375.125955
20
5561.691221
11
7355.874152
21
5522.987562
0
LINE
8
Extracted
10
7355.874152
20
5522.987562
11
7336.468801
21
5484.356732
0
LINE
8
Extracted
10
7336.468801
20
5484.356732
11
7316.916668
21
5445.796015
0
LINE
8
Extracted
10
7316.916668
20
5445.796015
11
7297.224520
21
5407.302694
0
LINE
8
Extracted
10
7297.224520
20
5407.302694
11
7257.447250
21
5330.507375
0
LINE
8
Extracted
10
7257.447250
20
5330.507375
11
7217.191128
21
5253.949044
0
LINE
8
Extracted
10
7217.191128
20
5253.949044
11
7176.510293
21
5177.605971
0
LINE
8
Extracted
10
7176.510293
20
5177.605971
11
7135.458881
21
5101.456424
0
LINE
8
Extracted
10
7135.458881
20
5101.456424
11
7094.091031
21
5025.478672
0
LINE
8
Extracted
10
7094.091031
20
5025.478672
11
7052.460880
21
4949.650985
0
LINE
8
Extracted
10
7052.460880
20
4949.650985
11
7010.622566
21
4873.951631
0
LINE
8
Extracted
10
7010.622566
20
4873.951631
11
6926.538000
21
4722.851000
0
LINE
8
Extracted
10
6926.538000
20
4722.851000
11
6893.975175
21
4664.974863
0
LINE
8
Extracted
10
6893.975175
20
4664.974863
11
6861.037371
21
4607.313998
0
LINE
8
Extracted
10
6861.037371
20
4607.313998
11
6827.752967
21
4549.852536
0
LINE
8
Extracted
10
6827.752967
20
4549.852536
11
6794.150344
21
4492.574609
0
LINE
8
Extracted
10
6794.150344
20
4492.574609
11
6760.257880
21
4435.464348
0
LINE
8
Extracted
10
6760.257880
20
4435.464348
11
6726.103957
21
4378.505885
0
LINE
8
Extracted
10
6726.103957
20
4378.505885
11
6691.716954
21
4321.683350
0
LINE
8
Extracted
10
6691.716954
20
4321.683350
11
6657.125250
21
4264.980875
0
LINE
8
Extracted
10
6657.125250
20
4264.980875
11
6622.357226
21
4208.382592
0
LINE
8
Extracted
10
6622.357226
20
4208.382592
11
6587.441262
21
4151.872631
0
LINE
8
Extracted
10
6587.441262
20
4151.872631
11
6517.279031
21
4039.054203
0
LINE
8
Extracted
10
6517.279031
20
4039.054203
11
6376.428000
21
3813.779000
0
LINE
8
Extracted
10
6376.428000
20
3813.779000
11
6331.668732
21
3741.904156
0
LINE
8
Extracted
10
6331.668732
20
3741.904156
11
6286.975547
21
3669.967625
0
LINE
8
Extracted
10
6286.975547
20
3669.967625
11
6242.156244
21
3598.103281
0
LINE
8
Extracted
10
6242.156244
20
3598.103281
11
6197.018625
21
3526.445000
0
LINE
8
Extracted
10
6197.018625
20
3526.445000
11
6174.270385
21
3490.734969
0
LINE
8
Extracted
10
6174.270385
20
3490.734969
11
6151.370490
21
3455.126656
0
LINE
8
Extracted
10
6151.370490
20
3455.126656
11
6128.294917
21
3419.636797
0
LINE
8
Extracted
10
6128.294917
20
3419.636797
11
6105.019641
21
3384.282125
0
LINE
8
Extracted
10
6105.019641
20
3384.282125
11
6081.520635
21
3349.079375
0
LINE
8
Extracted
10
6081.520635
20
3349.079375
11
6057.773877
21
3314.045281
0
LINE
8
Extracted
10
6057.773877
20
3314.045281
11
6033.755340
21
3279.196578
0
LINE
8
Extracted
10
6033.755340
20
3279.196578
11
6009.441000
21
3244.550000
0
LINE
8
Extracted
10
6009.441000
20
3244.550000
11
5976.870928
21
3198.990233
0
LINE
8
Extracted
10
5976.870928
20
3198.990233
11
5943.933627
21
3153.699049
0
LINE
8
Extracted
10
5943.933627
20
3153.699049
11
5910.657094
21
3108.656563
0
LINE
8
Extracted
10
5910.657094
20
3108.656563
11
5877.069328
21
3063.842891
0
LINE
8
Extracted
10
5877.069328
20
3063.842891
11
5843.198325
21
3019.238146
0
LINE
8
Extracted
10
5843.198325
20
3019.238146
11
5809.072084
21
2974.822443
0
LINE
8
Extracted
10
5809.072084
20
2974.822443
11
5774.718601
21
2930.575898
0
LINE
8
Extracted
10
5774.718601
20
2930.575898
11
5740.165875
21
2886.478625
0
LINE
8
Extracted
10
5740.165875
20
2886.478625
11
5705.441903
21
2842.510739
0
LINE
8
Extracted
10
5705.441903
20
2842.510739
11
5670.574682
21
2798.652354
0
LINE
8
Extracted
10
5670.574682
20
2798.652354
11
5600.522484
21
2711.184547
0
LINE
8
Extracted
10
5600.522484
20
2711.184547
11
5459.931000
21
2536.688000
0
LINE
8
Extracted
10
5459.931000
20
2536.688000
11
5447.042941
21
2520.542299
0
LINE
8
Extracted
10
5447.042941
20
2520.542299
11
5434.262916
21
2504.283896
0
LINE
8
Extracted
10
5434.262916
20
2504.283896
11
5408.975002
21
2471.481574
0
LINE
8
Extracted
10
5408.975002
20
2471.481574
11
5383.963325
21
2438.386208
0
LINE
8
Extracted
10
5383.963325
20
2438.386208
11
5359.123953
21
2405.102969
0
LINE
8
Extracted
10
5359.123953
20
2405.102969
11
5309.546396
21
2338.393566
0
LINE
8
Extracted
10
5309.546396
20
2338.393566
11
5284.600347
21
2305.177749
0
LINE
8
Extracted
10
5284.600347
20
2305.177749
11
5259.410875
21
2272.194750
0
LINE
8
Extracted
10
5259.410875
20
2272.194750
11
5233.874047
21
2239.549744
0
LINE
8
Extracted
10
5233.874047
20
2239.549744
11
5220.942896
21
2223.386854
0
LINE
8
Extracted
10
5220.942896
20
2223.386854
11
5207.885932
21
2207.347902
0
LINE
8
Extracted
10
5207.885932
20
2207.347902
11
5194.690162
21
2191.446035
0
LINE
8
Extracted
10
5194.690162
20
2191.446035
11
5181.342596
21
2175.694399
0
LINE
8
Extracted
10
5181.342596
20
2175.694399
11
5167.830243
21
2160.106140
0
LINE
8
Extracted
10
5167.830243
20
2160.106140
11
5154.140109
21
2144.694406
0
LINE
8
Extracted
10
5154.140109
20
2144.694406
11
5140.259205
21
2129.472343
0
LINE
8
Extracted
10
5140.259205
20
2129.472343
11
5126.174538
21
2114.453097
0
LINE
8
Extracted
10
5126.174538
20
2114.453097
11
5111.873118
21
2099.649815
0
LINE
8
Extracted
10
5111.873118
20
2099.649815
11
5097.341951
21
2085.075645
0
LINE
8
Extracted
10
5097.341951
20
2085.075645
11
5082.568048
21
2070.743731
0
LINE
8
Extracted
10
5082.568048
20
2070.743731
11
5067.538416
21
2056.667221
0
LINE
8
Extracted
10
5067.538416
20
2056.667221
11
5052.240064
21
2042.859262
0
LINE
8
Extracted
10
5052.240064
20
2042.859262
11
5036.660000
21
2029.333000
0
LINE
8
Extracted
10
5036.660000
20
2029.333000
11
5024.057561
21
2018.797131
0
LINE
8
Extracted
10
5024.057561
20
2018.797131
11
5011.287719
21
2008.485212
0
LINE
8
Extracted
10
5011.287719
20
2008.485212
11
4998.357283
21
1998.388801
0
LINE
8
Extracted
10
4998.357283
20
1998.388801
11
4985.273063
21
1988.499459
0
LINE
8
Extracted
10
4985.273063
20
1988.499459
11
4972.041865
21
1978.808746
0
LINE
8
Extracted
10
4972.041865
20
1978.808746
11
4958.670500
21
1969.308223
0
LINE
8
Extracted
10
4958.670500
20
1969.308223
11
4945.165775
21
1959.989449
0
LINE
8
Extracted
10
4945.165775
20
1959.989449
11
4931.534500
21
1950.843984
0
LINE
8
Extracted
10
4931.534500
20
1950.843984
11
4917.783482
21
1941.863389
0
LINE
8
Extracted
10
4917.783482
20
1941.863389
11
4903.919531
21
1933.039224
0
LINE
8
Extracted
10
4903.919531
20
1933.039224
11
4889.949455
21
1924.363049
0
LINE
8
Extracted
10
4889.949455
20
1924.363049
11
4875.880063
21
1915.826424
0
LINE
8
Extracted
10
4875.880063
20
1915.826424
11
4861.718162
21
1907.420909
0
LINE
8
Extracted
10
4861.718162
20
1907.420909
11
4847.470563
21
1899.138064
0
LINE
8
Extracted
10
4847.470563
20
1899.138064
11
4818.745500
21
1882.906625
0
LINE
8
Extracted
10
4818.745500
20
1882.906625
11
4789.759344
21
1867.064589
0
LINE
8
Extracted
10
4789.759344
20
1867.064589
11
4760.566563
21
1851.544436
0
LINE
8
Extracted
10
4760.566563
20
1851.544436
11
4731.221625
21
1836.278647
0
LINE
8
Extracted
10
4731.221625
20
1836.278647
11
4701.779000
21
1821.199703
0
LINE
8
Extracted
10
4701.779000
20
1821.199703
11
4642.818563
21
1791.332275
0
LINE
8
Extracted
10
4642.818563
20
1791.332275
11
4613.409688
21
1776.408753
0
LINE
8
Extracted
10
4613.409688
20
1776.408753
11
4584.121000
21
1761.402000
0
LINE
8
Extracted
10
4584.121000
20
1761.402000
11
4540.511051
21
1739.075081
0
LINE
8
Extracted
10
4540.511051
20
1739.075081
11
4496.667219
21
1717.103773
0
LINE
8
Extracted
10
4496.667219
20
1717.103773
11
4474.643659
21
1706.305298
0
LINE
8
Extracted
10
4474.643659
20
1706.305298
11
4452.544902
21
1695.660313
0
LINE
8
Extracted
10
4452.544902
20
1695.660313
11
4430.365375
21
1685.190350
0
LINE
8
Extracted
10
4430.365375
20
1685.190350
11
4408.099500
21
1674.916937
0
LINE
8
Extracted
10
4408.099500
20
1674.916937
11
4385.741704
21
1664.861605
0
LINE
8
Extracted
10
4385.741704
20
1664.861605
11
4363.286410
21
1655.045882
0
LINE
8
Extracted
10
4363.286410
20
1655.045882
11
4340.728044
21
1645.491298
0
LINE
8
Extracted
10
4340.728044
20
1645.491298
11
4318.061031
21
1636.219383
0
LINE
8
Extracted
10
4318.061031
20
1636.219383
11
4295.279795
21
1627.251666
0
LINE
8
Extracted
10
4295.279795
20
1627.251666
11
4272.378762
21
1618.609677
0
LINE
8
Extracted
10
4272.378762
20
1618.609677
11
4249.352355
21
1610.314945
0
LINE
8
Extracted
10
4249.352355
20
1610.314945
11
4226.195000
21
1602.389000
0
LINE
8
Extracted
10
4226.195000
20
1602.389000
11
4209.986593
21
1597.156229
0
LINE
8
Extracted
10
4209.986593
20
1597.156229
11
4193.692613
21
1592.209759
0
LINE
8
Extracted
10
4193.692613
20
1592.209759
11
4177.320006
21
1587.529215
0
LINE
8
Extracted
10
4177.320006
20
1587.529215
11
4160.875717
21
1583.094223
0
LINE
8
Extracted
10
4160.875717
20
1583.094223
11
4144.366691
21
1578.884409
0
LINE
8
Extracted
10
4144.366691
20
1578.884409
11
4127.799872
21
1574.879398
0
LINE
8
Extracted
10
4127.799872
20
1574.879398
11
4111.182206
21
1571.058815
0
LINE
8
Extracted
10
4111.182206
20
1571.058815
11
4094.520638
21
1567.402287
0
LINE
8
Extracted
10
4094.520638
20
1567.402287
11
4061.093573
21
1560.499897
0
LINE
8
Extracted
10
4061.093573
20
1560.499897
11
4027.574239
21
1554.009233
0
LINE
8
Extracted
10
4027.574239
20
1554.009233
11
3960.481000
21
1541.611100
0
LINE
8
Extracted
10
3960.481000
20
1541.611100
11
3944.523408
21
1538.760057
0
LINE
8
Extracted
10
3944.523408
20
1538.760057
11
3928.540514
21
1536.065338
0
LINE
8
Extracted
10
3928.540514
20
1536.065338
11
3896.509359
21
1531.079678
0
LINE
8
Extracted
10
3896.509359
20
1531.079678
11
3864.408619
21
1526.523736
0
LINE
8
Extracted
10
3864.408619
20
1526.523736
11
3832.259375
21
1522.267125
0
LINE
8
Extracted
10
3832.259375
20
1522.267125
11
3767.899703
21
1514.130359
0
LINE
8
Extracted
10
3767.899703
20
1514.130359
11
3735.731439
21
1509.989434
0
LINE
8
Extracted
10
3735.731439
20
1509.989434
11
3703.599000
21
1505.626300
0
LINE
8
Extracted
10
3703.599000
20
1505.626300
11
3678.638302
21
1502.000676
0
LINE
8
Extracted
10
3678.638302
20
1502.000676
11
3653.697228
21
1498.214539
0
LINE
8
Extracted
10
3653.697228
20
1498.214539
11
3603.828175
21
1490.536810
0
LINE
8
Extracted
10
3603.828175
20
1490.536810
11
3578.877307
21
1486.833258
0
LINE
8
Extracted
10
3578.877307
20
1486.833258
11
3553.900284
21
1483.345276
0
LINE
8
Extracted
10
3553.900284
20
1483.345276
11
3528.885664
21
1480.166883
0
LINE
8
Extracted
10
3528.885664
20
1480.166883
11
3503.822000
21
1477.392100
0
LINE
8
Extracted
10
3503.822000
20
1477.392100
11
3476.970481
21
1474.811586
0
LINE
8
Extracted
10
3476.970481
20
1474.811586
11
3450.098314
21
1472.488327
0
LINE
8
Extracted
10
3450.098314
20
1472.488327
11
3423.207776
21
1470.393553
0
LINE
8
Extracted
10
3423.207776
20
1470.393553
11
3396.301141
21
1468.498495
0
LINE
8
Extracted
10
3396.301141
20
1468.498495
11
3369.380683
21
1466.774384
0
LINE
8
Extracted
10
3369.380683
20
1466.774384
11
3342.448678
21
1465.192451
0
LINE
8
Extracted
10
3342.448678
20
1465.192451
11
3288.559125
21
1462.340037
0
LINE
8
Extracted
10
3288.559125
20
1462.340037
11
3180.741547
21
1457.075486
0
LINE
8
Extracted
10
3180.741547
20
1457.075486
11
3126.849920
21
1454.203037
0
LINE
8
Extracted
10
3126.849920
20
1454.203037
11
3099.916359
21
1452.606077
0
LINE
8
Extracted
10
3099.916359
20
1452.606077
11
3072.994000
21
1450.863600
0
LINE
8
Extracted
10
3072.994000
20
1450.863600
11
3002.185068
21
1445.772563
0
LINE
8
Extracted
10
3002.185068
20
1445.772563
11
2931.405234
21
1440.237152
0
LINE
8
Extracted
10
2931.405234
20
1440.237152
11
2789.881625
21
1428.636462
0
LINE
8
Extracted
10
2789.881625
20
1428.636462
11
2719.112232
21
1422.972812
0
LINE
8
Extracted
10
2719.112232
20
1422.972812
11
2648.320703
21
1417.668042
0
LINE
8
Extracted
10
2648.320703
20
1417.668042
11
2612.912635
21
1415.212992
0
LINE
8
Extracted
10
2612.912635
20
1415.212992
11
2577.494229
21
1412.922967
0
LINE
8
Extracted
10
2577.494229
20
1412.922967
11
2542.063884
21
1410.823069
0
LINE
8
Extracted
10
2542.063884
20
1410.823069
11
2506.620000
21
1408.938400
0
LINE
8
Extracted
10
2506.620000
20
1408.938400
11
2470.192431
21
1407.234043
0
LINE
8
Extracted
10
2470.192431
20
1407.234043
11
2433.757041
21
1405.739843
0
LINE
8
Extracted
10
2433.757041
20
1405.739843
11
2397.314681
21
1404.432575
0
LINE
8
Extracted
10
2397.314681
20
1404.432575
11
2360.866203
21
1403.289010
0
LINE
8
Extracted
10
2360.866203
20
1403.289010
11
2287.954295
21
1401.400082
0
LINE
8
Extracted
10
2287.954295
20
1401.400082
11
2215.028125
21
1399.887241
0
LINE
8
Extracted
10
2215.028125
20
1399.887241
11
2069.160234
21
1397.246552
0
LINE
8
Extracted
10
2069.160234
20
1397.246552
11
1996.232131
21
1395.747068
0
LINE
8
Extracted
10
1996.232131
20
1395.747068
11
1923.317000
21
1393.880400
0
LINE
8
Extracted
10
1923.317000
20
1393.880400
11
1757.751484
21
1389.213252
0
LINE
8
Extracted
10
1757.751484
20
1389.213252
11
1592.186625
21
1384.458280
0
LINE
8
Extracted
10
1592.186625
20
1384.458280
11
1509.411092
21
1381.885433
0
LINE
8
Extracted
10
1509.411092
20
1381.885433
11
1426.643703
21
1379.095717
0
LINE
8
Extracted
10
1426.643703
20
1379.095717
11
1343.887119
21
1376.024163
0
LINE
8
Extracted
10
1343.887119
20
1376.024163
11
1261.144000
21
1372.605800
0
LINE
8
Extracted
10
1261.144000
20
1372.605800
11
1194.950084
21
1369.846961
0
LINE
8
Extracted
10
1194.950084
20
1369.846961
11
1128.737359
21
1367.221497
0
LINE
8
Extracted
10
1128.737359
20
1367.221497
11
1062.522736
21
1364.534966
0
LINE
8
Extracted
10
1062.522736
20
1364.534966
11
996.323125
21
1361.592920
0
LINE
8
Extracted
10
996.323125
20
1361.592920
11
930.155436
21
1358.200916
0
LINE
8
Extracted
10
930.155436
20
1358.200916
11
897.088846
21
1356.275415
0
LINE
8
Extracted
10
897.088846
20
1356.275415
11
864.036578
21
1354.164507
0
LINE
8
Extracted
10
864.036578
20
1354.164507
11
831.000746
21
1351.843888
0
LINE
8
Extracted
10
831.000746
20
1351.843888
11
797.983463
21
1349.289251
0
LINE
8
Extracted
10
797.983463
20
1349.289251
11
764.986843
21
1346.476290
0
LINE
8
Extracted
10
764.986843
20
1346.476290
11
732.013000
21
1343.380700
0
LINE
8
Extracted
10
732.013000
20
1343.380700
11
714.261143
21
1341.803438
0
LINE
8
Extracted
10
714.261143
20
1341.803438
11
696.430998
21
1340.407050
0
LINE
8
Extracted
10
696.430998
20
1340.407050
11
678.583208
21
1338.969290
0
LINE
8
Extracted
10
678.583208
20
1338.969290
11
660.778413
21
1337.267912
0
LINE
8
Extracted
10
660.778413
20
1337.267912
11
651.911088
21
1336.248915
0
LINE
8
Extracted
10
651.911088
20
1336.248915
11
643.077253
21
1335.080671
0
LINE
8
Extracted
10
643.077253
20
1335.080671
11
634.284487
21
1333.735399
0
LINE
8
Extracted
10
634.284487
20
1333.735399
11
625.540370
21
1332.185319
0
LINE
8
Extracted
10
625.540370
20
1332.185319
11
616.852483
21
1330.402650
0
LINE
8
Extracted
10
616.852483
20
1330.402650
11
608.228406
21
1328.359611
0
LINE
8
Extracted
10
608.228406
20
1328.359611
11
599.675718
21
1326.028421
0
LINE
8
Extracted
10
599.675718
20
1326.028421
11
591.202000
21
1323.381300
0
LINE
8
Extracted
10
591.202000
20
1323.381300
11
583.712884
21
1320.829073
0
LINE
8
Extracted
10
583.712884
20
1320.829073
11
576.185630
21
1318.082831
0
LINE
8
Extracted
10
576.185630
20
1318.082831
11
568.728376
21
1315.064261
0
LINE
8
Extracted
10
568.728376
20
1315.064261
11
561.449263
21
1311.695052
0
LINE
8
Extracted
10
561.449263
20
1311.695052
11
554.456429
21
1307.896894
0
LINE
8
Extracted
10
554.456429
20
1307.896894
11
551.101160
21
1305.812485
0
LINE
8
Extracted
10
551.101160
20
1305.812485
11
547.858014
21
1303.591473
0
LINE
8
Extracted
10
547.858014
20
1303.591473
11
544.740507
21
1301.224067
0
LINE
8
Extracted
10
544.740507
20
1301.224067
11
541.762158
21
1298.700479
0
LINE
8
Extracted
10
541.762158
20
1298.700479
11
538.936483
21
1296.010919
0
LINE
8
Extracted
10
538.936483
20
1296.010919
11
536.277000
21
1293.145600
0
LINE
8
Extracted
10
536.277000
20
1293.145600
11
533.891784
21
1290.181902
0
LINE
8
Extracted
10
533.891784
20
1290.181902
11
531.741895
21
1287.070794
0
LINE
8
Extracted
10
531.741895
20
1287.070794
11
529.806125
21
1283.826449
0
LINE
8
Extracted
10
529.806125
20
1283.826449
11
528.063263
21
1280.463039
0
LINE
8
Extracted
10
528.063263
20
1280.463039
11
526.492099
21
1276.994738
0
LINE
8
Extracted
10
526.492099
20
1276.994738
11
525.071423
21
1273.435718
0
LINE
8
Extracted
10
525.071423
20
1273.435718
11
522.596700
21
1266.102212
0
LINE
8
Extracted
10
522.596700
20
1266.102212
11
520.469414
21
1258.575906
0
LINE
8
Extracted
10
520.469414
20
1258.575906
11
518.519888
21
1250.970180
0
LINE
8
Extracted
10
518.519888
20
1250.970180
11
516.578442
21
1243.398417
0
LINE
8
Extracted
10
516.578442
20
1243.398417
11
514.475400
21
1235.974000
0
LINE
8
Extracted
10
514.475400
20
1235.974000
11
512.275330
21
1228.326070
0
LINE
8
Extracted
10
512.275330
20
1228.326070
11
510.300814
21
1220.617695
0
LINE
8
Extracted
10
510.300814
20
1220.617695
11
506.796213
21
1205.081212
0
LINE
8
Extracted
10
506.796213
20
1205.081212
11
503.497130
21
1189.487748
0
LINE
8
Extracted
10
503.497130
20
1189.487748
11
499.939100
21
1173.960500
0
LINE
8
Extracted
10
499.939100
20
1173.960500
11
497.611551
21
1165.110366
0
LINE
8
Extracted
10
497.611551
20
1165.110366
11
495.103577
21
1156.300737
0
LINE
8
Extracted
10
495.103577
20
1156.300737
11
489.907838
21
1138.724075
0
LINE
8
Extracted
10
489.907838
20
1138.724075
11
487.400816
21
1129.917582
0
LINE
8
Extracted
10
487.400816
20
1129.917582
11
485.074855
21
1121.072675
0
LINE
8
Extracted
10
485.074855
20
1121.072675
11
483.020326
21
1112.169624
0
LINE
8
Extracted
10
483.020326
20
1112.169624
11
481.327600
21
1103.188700
0
LINE
8
Extracted
10
481.327600
20
1103.188700
11
478.921550
21
1086.739413
0
LINE
8
Extracted
10
478.921550
20
1086.739413
11
477.038003
21
1070.221827
0
LINE
8
Extracted
10
477.038003
20
1070.221827
11
475.597430
21
1053.649773
0
LINE
8
Extracted
10
475.597430
20
1053.649773
11
474.520300
21
1037.037087
0
LINE
8
Extracted
10
474.520300
20
1037.037087
11
473.727082
21
1020.397603
0
LINE
8
Extracted
10
473.727082
20
1020.397603
11
473.138247
21
1003.745155
0
LINE
8
Extracted
10
473.138247
20
1003.745155
11
472.255600
21
970.456700
0
LINE
8
Extracted
10
472.255600
20
970.456700
11
472.360759
21
964.265477
0
LINE
8
Extracted
10
472.360759
20
964.265477
11
472.921918
21
957.939732
0
LINE
8
Extracted
10
472.921918
20
957.939732
11
473.841403
21
951.510479
0
LINE
8
Extracted
10
473.841403
20
951.510479
11
475.021538
21
945.008731
0
LINE
8
Extracted
10
475.021538
20
945.008731
11
477.773057
21
931.911802
0
LINE
8
Extracted
10
477.773057
20
931.911802
11
480.395075
21
918.897050
0
LINE
8
Extracted
10
480.395075
20
918.897050
11
481.413333
21
912.498023
0
LINE
8
Extracted
10
481.413333
20
912.498023
11
482.106190
21
906.212579
0
LINE
8
Extracted
10
482.106190
20
906.212579
11
482.375971
21
900.071732
0
LINE
8
Extracted
10
482.375971
20
900.071732
11
482.125000
21
894.106494
0
LINE
8
Extracted
10
482.125000
20
894.106494
11
481.773709
21
891.199420
0
LINE
8
Extracted
10
481.773709
20
891.199420
11
481.255603
21
888.347879
0
LINE
8
Extracted
10
481.255603
20
888.347879
11
480.558471
21
885.555746
0
LINE
8
Extracted
10
480.558471
20
885.555746
11
479.670104
21
882.826899
0
LINE
8
Extracted
10
479.670104
20
882.826899
11
478.578293
21
880.165215
0
LINE
8
Extracted
10
478.578293
20
880.165215
11
477.270828
21
877.574569
0
LINE
8
Extracted
10
477.270828
20
877.574569
11
475.735500
21
875.058838
0
LINE
8
Extracted
10
475.735500
20
875.058838
11
473.960100
21
872.621900
0
LINE
8
Extracted
10
473.960100
20
872.621900
11
472.038060
21
870.548542
0
LINE
8
Extracted
10
472.038060
20
870.548542
11
469.884275
21
868.841090
0
LINE
8
Extracted
10
469.884275
20
868.841090
11
467.522476
21
867.462906
0
LINE
8
Extracted
10
467.522476
20
867.462906
11
464.976397
21
866.377348
0
LINE
8
Extracted
10
464.976397
20
866.377348
11
462.269770
21
865.547777
0
LINE
8
Extracted
10
462.269770
20
865.547777
11
459.426327
21
864.937553
0
LINE
8
Extracted
10
459.426327
20
864.937553
11
456.469801
21
864.510036
0
LINE
8
Extracted
10
456.469801
20
864.510036
11
453.423925
21
864.228586
0
LINE
8
Extracted
10
453.423925
20
864.228586
11
447.159051
21
863.957327
0
LINE
8
Extracted
10
447.159051
20
863.957327
11
440.821566
21
863.830656
0
LINE
8
Extracted
10
440.821566
20
863.830656
11
434.601329
21
863.555454
0
LINE
8
Extracted
10
434.601329
20
863.555454
11
431.594509
21
863.270553
0
LINE
8
Extracted
10
431.594509
20
863.270553
11
428.688200
21
862.838600
0
LINE
8
Extracted
10
428.688200
20
862.838600
11
407.268144
21
858.993856
0
LINE
8
Extracted
10
407.268144
20
858.993856
11
385.985300
21
855.453077
0
LINE
8
Extracted
10
385.985300
20
855.453077
11
375.211220
21
853.848362
0
LINE
8
Extracted
10
375.211220
20
853.848362
11
364.250506
21
852.381660
0
LINE
8
Extracted
10
364.250506
20
852.381660
11
353.029515
21
851.073648
0
LINE
8
Extracted
10
353.029515
20
851.073648
11
341.474600
21
849.945000
0
LINE
8
Extracted
10
341.474600
20
849.945000
11
301.913411
21
847.952931
0
LINE
8
Extracted
10
301.913411
20
847.952931
11
263.379709
21
846.536065
0
LINE
8
Extracted
10
263.379709
20
846.536065
11
225.717672
21
845.633970
0
LINE
8
Extracted
10
225.717672
20
845.633970
11
188.771475
21
845.186212
0
LINE
8
Extracted
10
188.771475
20
845.186212
11
152.385293
21
845.132360
0
LINE
8
Extracted
10
152.385293
20
845.132360
11
116.403303
21
845.411978
0
LINE
8
Extracted
10
116.403303
20
845.411978
11
80.669680
21
845.964636
0
LINE
8
Extracted
10
80.669680
20
845.964636
11
45.028600
21
846.729900
0
LINE
8
Extracted
10
45.028600
20
846.729900
11
39.157114
21
846.373029
0
LINE
8
Extracted
10
39.157114
20
846.373029
11
33.928538
21
845.663777
0
LINE
8
Extracted
10
33.928538
20
845.663777
11
29.306092
21
844.617510
0
LINE
8
Extracted
10
29.306092
20
844.617510
11
25.253000
21
843.249590
0
LINE
8
Extracted
10
25.253000
20
843.249590
11
21.732564
21
841.575378
0
LINE
8
Extracted
10
21.732564
20
841.575378
11
18.707963
21
839.610234
0
LINE
8
Extracted
10
18.707963
20
839.610234
11
16.142455
21
837.369523
0
LINE
8
Extracted
10
16.142455
20
837.369523
11
13.999300
21
834.868610
0
LINE
8
Extracted
10
13.999300
20
834.868610
11
12.241661
21
832.122859
0
LINE
8
Extracted
10
12.241661
20
832.122859
11
10.832838
21
829.147634
0
LINE
8
Extracted
10
10.832838
20
829.147634
11
9.736070
21
825.958296
0
LINE
8
Extracted
10
9.736070
20
825.958296
11
8.914600
21
822.570210
0
LINE
8
Extracted
10
8.914600
20
822.570210
11
8.331666
21
818.998726
0
LINE
8
Extracted
10
8.331666
20
818.998726
11
7.950500
21
815.259207
0
LINE
8
Extracted
10
7.950500
20
815.259207
11
7.646400
21
807.337510
0
LINE
8
Extracted
10
7.646400
20
807.337510
11
7.650100
21
32.787700
0
LINE
8
Extracted
10
7.650100
20
32.787700
11
7.439300
21
24.153800
0
LINE
8
Extracted
10
7.439300
20
24.153800
11
7.565200
21
17.779410
0
LINE
8
Extracted
10
7.565200
20
17.779410
11
7.843287
21
15.335259
0
LINE
8
Extracted
10
7.843287
20
15.335259
11
8.312100
21
13.330870
0
LINE
8
Extracted
10
8.312100
20
13.330870
11
9.007275
21
11.724526
0
LINE
8
Extracted
10
9.007275
20
11.724526
11
9.964200
21
10.474530
0
LINE
8
Extracted
10
9.964200
20
10.474530
11
11.218575
21
9.539169
0
LINE
8
Extracted
10
11.218575
20
9.539169
11
12.805800
21
8.876740
0
LINE
8
Extracted
10
12.805800
20
8.876740
11
14.761337
21
8.445546
0
LINE
8
Extracted
10
14.761337
20
8.445546
11
17.120900
21
8.203870
0
LINE
8
Extracted
10
17.120900
20
8.203870
11
23.193900
21
8.122270
0
LINE
8
Extracted
10
23.193900
20
8.122270
11
31.309000
21
8.298250
0
LINE
8
Extracted
10
31.309000
20
8.298250
11
7567.800000
21
224.854000
0
LINE
8
Jet1
10
1010.060000
20
1004.060000
11
1003.156367
21
1003.972640
0
LINE
8
Jet1
10
1003.156367
20
1003.972640
11
996.295807
21
1003.711962
0
LINE
8
Jet1
10
996.295807
20
1003.711962
11
989.480420
21
1003.280069
0
LINE
8
Jet1
10
989.480420
20
1003.280069
11
982.712306
21
1002.679059
0
LINE
8
Jet1
10
982.712306
20
1002.679059
11
975.993567
21
1001.911034
0
LINE
8
Jet1
10
975.993567
20
1001.911034
11
969.326304
21
1000.978096
0
LINE
8
Jet1
10
969.326304
20
1000.978096
11
962.712616
21
999.882343
0
LINE
8
Jet1
10
962.712616
20
999.882343
11
956.154605
21
998.625878
0
LINE
8
Jet1
10
956.154605
20
998.625878
11
949.654372
21
997.210801
0
LINE
8
Jet1
10
949.654372
20
997.210801
11
943.214017
21
995.639212
0
LINE
8
Jet1
10
943.214017
20
995.639212
11
936.835641
21
993.913213
0
LINE
8
Jet1
10
936.835641
20
993.913213
11
930.521344
21
992.034903
0
LINE
8
Jet1
10
930.521344
20
992.034903
11
924.273228
21
990.006385
0
LINE
8
Jet1
10
924.273228
20
990.006385
11
918.093393
21
987.829758
0
LINE
8
Jet1
10
918.093393
20
987.829758
11
911.983940
21
985.507123
0
LINE
8
Jet1
10
911.983940
20
985.507123
11
905.946969
21
983.040581
0
LINE
8
Jet1
10
905.946969
20
983.040581
11
899.984581
21
980.432233
0
LINE
8
Jet1
10
899.984581
20
980.432233
11
894.098878
21
977.684179
0
LINE
8
Jet1
10
894.098878
20
977.684179
11
888.291959
21
974.798520
0
LINE
8
Jet1
10
888.291959
20
974.798520
11
882.565925
21
971.777357
0
LINE
8
Jet1
10
882.565925
20
971.777357
11
876.922878
21
968.622791
0
LINE
8
Jet1
10
876.922878
20
968.622791
11
871.364918
21
965.336922
0
LINE
8
Jet1
10
871.364918
20
965.336922
11
865.894145
21
961.921851
0
LINE
8
Jet1
10
865.894145
20
961.921851
11
860.512660
21
958.379678
0
LINE
8
Jet1
10
860.512660
20
958.379678
11
855.222565
21
954.712505
0
LINE
8
Jet1
10
855.222565
20
954.712505
11
850.025959
21
950.922432
0
LINE
8
Jet1
10
850.025959
20
950.922432
11
844.924944
21
947.011560
0
LINE
8
Jet1
10
844.924944
20
947.011560
11
839.921620
21
942.981990
0
LINE
8
Jet1
10
839.921620
20
942.981990
11
835.018088
21
938.835822
0
LINE
8
Jet1
10
835.018088
20
938.835822
11
830.216448
21
934.575157
0
LINE
8
Jet1
10
830.216448
20
934.575157
11
825.518802
21
930.202096
0
LINE
8
Jet1
10
825.518802
20
930.202096
11
820.927250
21
925.718739
0
LINE
8
Jet1
10
820.927250
20
925.718739
11
816.443893
21
921.127187
0
LINE
8
Jet1
10
816.443893
20
921.127187
11
812.070831
21
916.429541
0
LINE
8
Jet1
10
812.070831
20
916.429541
11
807.810166
21
911.627902
0
LINE
8
Jet1
10
807.810166
20
911.627902
11
803.663998
21
906.724371
0
LINE
8
Jet1
10
803.663998
20
906.724371
11
799.634427
21
901.721047
0
LINE
8
Jet1
10
799.634427
20
901.721047
11
795.723555
21
896.620032
0
LINE
8
Jet1
10
795.723555
20
896.620032
11
791.933482
21
891.423427
0
LINE
8
Jet1
10
791.933482
20
891.423427
11
788.266309
21
886.133332
0
LINE
8
Jet1
10
788.266309
20
886.133332
11
784.724136
21
880.751848
0
LINE
8
Jet1
10
784.724136
20
880.751848
11
781.309065
21
875.281075
0
LINE
8
Jet1
10
781.309065
20
875.281075
11
778.023196
21
869.723116
0
LINE
8
Jet1
10
778.023196
20
869.723116
11
774.868629
21
864.080069
0
LINE
8
Jet1
10
774.868629
20
864.080069
11
771.847467
21
858.354036
0
LINE
8
Jet1
10
771.847467
20
858.354036
11
768.961808
21
852.547117
0
LINE
8
Jet1
10
768.961808
20
852.547117
11
766.213754
21
846.661414
0
LINE
8
Jet1
10
766.213754
20
846.661414
11
763.605406
21
840.699027
0
LINE
8
Jet1
10
763.605406
20
840.699027
11
761.138865
21
834.662057
0
LINE
8
Jet1
10
761.138865
20
834.662057
11
758.816230
21
828.552604
0
LINE
8
Jet1
10
758.816230
20
828.552604
11
756.639604
21
822.372769
0
LINE
8
Jet1
10
756.639604
20
822.372769
11
754.611085
21
816.124653
0
LINE
8
Jet1
10
754.611085
20
816.124653
11
752.732777
21
809.810357
0
LINE
8
Jet1
10
752.732777
20
809.810357
11
751.006778
21
803.431981
0
LINE
8
Jet1
10
751.006778
20
803.431981
11
749.435190
21
796.991626
0
LINE
8
Jet1
10
749.435190
20
796.991626
11
748.020113
21
790.491393
0
LINE
8
Jet1
10
748.020113
20
790.491393
11
746.763649
21
783.933383
0
LINE
8
Jet1
10
746.763649
20
783.933383
11
745.667897
21
777.319696
0
LINE
8
Jet1
10
745.667897
20
777.319696
11
744.734960
21
770.652432
0
LINE
8
Jet1
10
744.734960
20
770.652432
11
743.966936
21
763.933694
0
LINE
8
Jet1
10
743.966936
20
763.933694
11
743.365928
21
757.165580
0
LINE
8
Jet1
10
743.365928
20
757.165580
11
742.934035
21
750.350193
0
LINE
8
Jet1
10
742.934035
20
750.350193
11
742.673359
21
743.489633
0
LINE
8
Jet1
10
742.673359
20
743.489633
11
742.586000
21
736.586000
0
LINE
8
Jet1
10
742.586000
20
736.586000
11
742.673359
21
729.682367
0
LINE
8
Jet1
10
742.673359
20
729.682367
11
742.934035
21
722.821807
0
LINE
8
Jet1
10
742.934035
20
722.821807
11
743.365928
21
716.006420
0
LINE
8
Jet1
10
743.365928
20
716.006420
11
743.966936
21
709.238306
0
LINE
8
Jet1
10
743.966936
20
709.238306
11
744.734960
21
702.519567
0
LINE
8
Jet1
10
744.734960
20
702.519567
11
745.667897
21
695.852304
0
LINE
8
Jet1
10
745.667897
20
695.852304
11
746.763649
21
689.238616
0
LINE
8
Jet1
10
746.763649
20
689.238616
11
748.020113
21
682.680605
0
LINE
8
Jet1
10
748.020113
20
682.680605
11
749.435190
21
676.180372
0
LINE
8
Jet1
10
749.435190
20
676.180372
11
751.006778
21
669.740017
0
LINE
8
Jet1
10
751.006778
20
669.740017
11
752.732777
21
663.361641
0
LINE
8
Jet1
10
752.732777
20
663.361641
11
754.611085
21
657.047344
0
LINE
8
Jet1
10
754.611085
20
657.047344
11
756.639604
21
650.799228
0
LINE
8
Jet1
10
756.639604
20
650.799228
11
758.816230
21
644.619393
0
LINE
8
Jet1
10
758.816230
20
644.619393
11
761.138865
21
638.509940
0
LINE
8
Jet1
10
761.138865
20
638.509940
11
763.605406
21
632.472969
0
LINE
8
Jet1
10
763.605406
20
632.472969
11
766.213754
21
626.510581
0
LINE
8
Jet1
10
766.213754
20
626.510581
11
768.961808
21
620.624878
0
LINE
8
Jet1
10
768.961808
20
620.624878
11
771.847467
21
614.817959
0
LINE
8
Jet1
10
771.847467
20
614.817959
11
774.868629
21
609.091925
0
LINE
8
Jet1
10
774.868629
20
609.091925
11
778.023196
21
603.448878
0
LINE
8
Jet1
10
778.023196
20
603.448878
11
781.309065
21
597.890918
0
LINE
8
Jet1
10
781.309065
20
597.890918
11
784.724136
21
592.420145
0
LINE
8
Jet1
10
784.724136
20
592.420145
11
788.266309
21
587.038660
0
LINE
8
Jet1
10
788.266309
20
587.038660
11
791.933482
21
581.748565
0
LINE
8
Jet1
10
791.933482
20
581.748565
11
795.723555
21
576.551959
0
LINE
8
Jet1
10
795.723555
20
576.551959
11
799.634427
21
571.450944
0
LINE
8
Jet1
10
799.634427
20
571.450944
11
803.663998
21
566.447620
0
LINE
8
Jet1
10
803.663998
20
566.447620
11
807.810166
21
561.544088
0
LINE
8
Jet1
10
807.810166
20
561.544088
11
812.070831
21
556.742448
0
LINE
8
Jet1
10
812.070831
20
556.742448
11
816.443893
21
552.044802
0
LINE
8
Jet1
10
816.443893
20
552.044802
11
820.927250
21
547.453250
0
LINE
8
Jet1
10
820.927250
20
547.453250
11
825.518802
21
542.969893
0
LINE
8
Jet1
10
825.518802
20
542.969893
11
830.216448
21
538.596831
0
LINE
8
Jet1
10
830.216448
20
538.596831
11
835.018088
21
534.336166
0
LINE
8
Jet1
10
835.018088
20
534.336166
11
839.921620
21
530.189998
0
LINE
8
Jet1
10
839.921620
20
530.189998
11
844.924944
21
526.160427
0
LINE
8
Jet1
10
844.924944
20
526.160427
11
850.025959
21
522.249555
0
LINE
8
Jet1
10
850.025959
20
522.249555
11
855.222565
21
518.459482
0
LINE
8
Jet1
10
855.222565
20
518.459482
11
860.512660
21
514.792309
0
LINE
8
Jet1
10
860.512660
20
514.792309
11
865.894145
21
511.250136
0
LINE
8
Jet1
10
865.894145
20
511.250136
11
871.364918
21
507.835065
0
LINE
8
Jet1
10
871.364918
20
507.835065
11
876.922878
21
504.549196
0
LINE
8
Jet1
10
876.922878
20
504.549196
11
882.565925
21
501.394629
0
LINE
8
Jet1
10
882.565925
20
501.394629
11
888.291959
21
498.373467
0
LINE
8
Jet1
10
888.291959
20
498.373467
11
894.098878
21
495.487808
0
LINE
8
Jet1
10
894.098878
20
495.487808
11
899.984581
21
492.739754
0
LINE
8
Jet1
10
899.984581
20
492.739754
11
905.946969
21
490.131406
0
LINE
8
Jet1
10
905.946969
20
490.131406
11
911.983940
21
487.664865
0
LINE
8
Jet1
10
911.983940
20
487.664865
11
918.093393
21
485.342230
0
LINE
8
Jet1
10
918.093393
20
485.342230
11
924.273228
21
483.165604
0
LINE
8
Jet1
10
924.273228
20
483.165604
11
930.521344
21
481.137085
0
LINE
8
Jet1
10
930.521344
20
481.137085
11
936.835641
21
479.258777
0
LINE
8
Jet1
10
936.835641
20
479.258777
11
943.214017
21
477.532778
0
LINE
8
Jet1
10
943.214017
20
477.532778
11
949.654372
21
475.961190
0
LINE
8
Jet1
10
949.654372
20
475.961190
11
956.154605
21
474.546113
0
LINE
8
Jet1
10
956.154605
20
474.546113
11
962.712616
21
473.289649
0
LINE
8
Jet1
10
962.712616
20
473.289649
11
969.326304
21
472.193897
0
LINE
8
Jet1
10
969.326304
20
472.193897
11
975.993567
21
471.260960
0
LINE
8
Jet1
10
975.993567
20
471.260960
11
982.712306
21
470.492936
0
LINE
8
Jet1
10
982.712306
20
470.492936
11
989.480420
21
469.891928
0
LINE
8
Jet1
10
989.480420
20
469.891928
11
996.295807
21
469.460035
0
LINE
8
Jet1
10
996.295807
20
469.460035
11
1003.156367
21
469.199359
0
LINE
8
Jet1
10
1003.156367
20
469.199359
11
1010.060000
21
469.112000
0
LINE
8
Jet1
10
1010.060000
20
469.112000
11
1019.927183
21
469.300305
0
LINE
8
Jet1
10
1019.927183
20
469.300305
11
1029.728383
21
469.847348
0
LINE
8
Jet1
10
1029.728383
20
469.847348
11
1039.455767
21
470.748036
0
LINE
8
Jet1
10
1039.455767
20
470.748036
11
1049.101500
21
471.997275
0
LINE
8
Jet1
10
1049.101500
20
471.997275
11
1058.657749
21
473.589972
0
LINE
8
Jet1
10
1058.657749
20
473.589972
11
1068.116680
21
475.521034
0
LINE
8
Jet1
10
1068.116680
20
475.521034
11
1077.470458
21
477.785366
0
LINE
8
Jet1
10
1077.470458
20
477.785366
11
1086.711250
21
480.377875
0
LINE
8
Jet1
10
1086.711250
20
480.377875
11
1095.831222
21
483.293468
0
LINE
8
Jet1
10
1095.831222
20
483.293468
11
1104.822539
21
486.527051
0
LINE
8
Jet1
10
1104.822539
20
486.527051
11
1113.677368
21
490.073530
0
LINE
8
Jet1
10
1113.677368
20
490.073530
11
1122.387875
21
493.927813
0
LINE
8
Jet1
10
1122.387875
20
493.927813
11
1130.946226
21
498.084804
0
LINE
8
Jet1
10
1130.946226
20
498.084804
11
1139.344586
21
502.539412
0
LINE
8
Jet1
10
1139.344586
20
502.539412
11
1147.575122
21
507.286542
0
LINE
8
Jet1
10
1147.575122
20
507.286542
11
1155.630000
21
512.321100
0
LINE
8
Jet1
10
1155.630000
20
512.321100
11
1163.501294
21
517.637999
0
LINE
8
Jet1
10
1163.501294
20
517.637999
11
1171.181230
21
523.232152
0
LINE
8
Jet1
10
1171.181230
20
523.232152
11
1178.661972
21
529.098462
0
LINE
8
Jet1
10
1178.661972
20
529.098462
11
1185.935687
21
535.231837
0
LINE
8
Jet1
10
1185.935687
20
535.231837
11
1192.994542
21
541.627183
0
LINE
8
Jet1
10
1192.994542
20
541.627183
11
1199.830702
21
548.279405
0
LINE
8
Jet1
10
1199.830702
20
548.279405
11
1206.436332
21
555.183408
0
LINE
8
Jet1
10
1206.436332
20
555.183408
11
1212.803600
21
562.334100
0
LINE
8
Jet1
10
1212.803600
20
562.334100
11
1218.924675
21
569.726393
0
LINE
8
Jet1
10
1218.924675
20
569.726393
11
1224.791725
21
577.355194
0
LINE
8
Jet1
10
1224.791725
20
577.355194
11
1230.396912
21
585.215398
0
LINE
8
Jet1
10
1230.396912
20
585.215398
11
1235.732400
21
593.301900
0
LINE
8
Jet1
10
1235.732400
20
593.301900
11
1240.790300
21
601.609632
0
LINE
8
Jet1
10
1240.790300
20
601.609632
11
1245.562900
21
610.133500
0
LINE
8
Jet1
10
1245.562900
20
610.133500
11
1250.042200
21
618.868410
0
LINE
8
Jet1
10
1250.042200
20
618.868410
11
1251.324200
21
621.085200
0
LINE
8
Jet1
10
1251.324200
20
621.085200
11
1252.597200
21
622.946100
0
LINE
8
Jet1
10
1252.597200
20
622.946100
11
1253.966175
21
624.463044
0
LINE
8
Jet1
10
1253.966175
20
624.463044
11
1255.536000
21
625.647970
0
LINE
8
Jet1
10
1255.536000
20
625.647970
11
1257.411587
21
626.512804
0
LINE
8
Jet1
10
1257.411587
20
626.512804
11
1259.697800
21
627.069480
0
LINE
8
Jet1
10
1259.697800
20
627.069480
11
1262.499662
21
627.329934
0
LINE
8
Jet1
10
1262.499662
20
627.329934
11
1265.922000
21
627.306096
0
LINE
8
Jet1
10
1265.922000
20
627.306096
11
1617.333000
21
612.195396
0
LINE
8
Jet1
10
1617.333000
20
612.195396
11
1620.414288
21
611.972903
0
LINE
8
Jet1
10
1620.414288
20
611.972903
11
1622.888000
21
611.926193
0
LINE
8
Jet1
10
1622.888000
20
611.926193
11
1624.824413
21
612.112793
0
LINE
8
Jet1
10
1624.824413
20
612.112793
11
1626.293800
21
612.590227
0
LINE
8
Jet1
10
1626.293800
20
612.590227
11
1627.366538
21
613.416024
0
LINE
8
Jet1
10
1627.366538
20
613.416024
11
1628.112800
21
614.647707
0
LINE
8
Jet1
10
1628.112800
20
614.647707
11
1628.602925
21
616.342800
0
LINE
8
Jet1
10
1628.602925
20
616.342800
11
1628.907200
21
618.558827
0
LINE
8
Jet1
10
1628.907200
20
618.558827
11
1630.456500
21
661.502027
0
LINE
8
Jet1
10
1630.456500
20
661.502027
11
1630.705450
21
663.175507
0
LINE
8
Jet1
10
1630.705450
20
663.175507
11
1630.989975
21
664.124257
0
LINE
8
Jet1
10
1630.989975
20
664.124257
11
1631.367500
21
664.751317
0
LINE
8
Jet1
10
1631.367500
20
664.751317
11
1632.360250
21
665.438771
0
LINE
8
Jet1
10
1632.360250
20
665.438771
11
1633.600500
21
666.034687
0
LINE
8
Jet1
10
1633.600500
20
666.034687
11
1636.491600
21
666.964188
0
LINE
8
Jet1
10
1636.491600
20
666.964188
11
1639.377000
21
667.564361
0
LINE
8
Jet1
10
1639.377000
20
667.564361
11
1643.671450
21
668.394915
0
LINE
8
Jet1
10
1643.671450
20
668.394915
11
1647.888800
21
669.422501
0
LINE
8
Jet1
10
1647.888800
20
669.422501
11
1652.024212
21
670.641975
0
LINE
8
Jet1
10
1652.024212
20
670.641975
11
1656.072850
21
672.048181
0
LINE
8
Jet1
10
1656.072850
20
672.048181
11
1660.029913
21
673.635969
0
LINE
8
Jet1
10
1660.029913
20
673.635969
11
1663.890600
21
675.400191
0
LINE
8
Jet1
10
1663.890600
20
675.400191
11
1667.650155
21
677.335692
0
LINE
8
Jet1
10
1667.650155
20
677.335692
11
1671.303745
21
679.437323
0
LINE
8
Jet1
10
1671.303745
20
679.437323
11
1674.846572
21
681.699933
0
LINE
8
Jet1
10
1674.846572
20
681.699933
11
1678.273837
21
684.118372
0
LINE
8
Jet1
10
1678.273837
20
684.118372
11
1681.580742
21
686.687488
0
LINE
8
Jet1
10
1681.580742
20
686.687488
11
1684.762486
21
689.402131
0
LINE
8
Jet1
10
1684.762486
20
689.402131
11
1687.814272
21
692.257149
0
LINE
8
Jet1
10
1687.814272
20
692.257149
11
1690.731300
21
695.247391
0
LINE
8
Jet1
10
1690.731300
20
695.247391
11
1693.508787
21
698.367708
0
LINE
8
Jet1
10
1693.508787
20
698.367708
11
1696.141911
21
701.612950
0
LINE
8
Jet1
10
1696.141911
20
701.612950
11
1698.625873
21
704.977965
0
LINE
8
Jet1
10
1698.625873
20
704.977965
11
1700.955872
21
708.457604
0
LINE
8
Jet1
10
1700.955872
20
708.457604
11
1703.127109
21
712.046714
0
LINE
8
Jet1
10
1703.127109
20
712.046714
11
1705.134784
21
715.740145
0
LINE
8
Jet1
10
1705.134784
20
715.740145
11
1706.974098
21
719.532746
0
LINE
8
Jet1
10
1706.974098
20
719.532746
11
1708.640250
21
723.419366
0
LINE
8
Jet1
10
1708.640250
20
723.419366
11
1710.128441
21
727.394854
0
LINE
8
Jet1
10
1710.128441
20
727.394854
11
1711.433872
21
731.454059
0
LINE
8
Jet1
10
1711.433872
20
731.454059
11
1712.551743
21
735.591830
0
LINE
8
Jet1
10
1712.551743
20
735.591830
11
1713.477253
21
739.803016
0
LINE
8
Jet1
10
1713.477253
20
739.803016
11
1714.205604
21
744.082466
0
LINE
8
Jet1
10
1714.205604
20
744.082466
11
1714.731995
21
748.425029
0
LINE
8
Jet1
10
1714.731995
20
748.425029
11
1715.051627
21
752.825555
0
LINE
8
Jet1
10
1715.051627
20
752.825555
11
1715.159700
21
757.278891
0
LINE
8
Jet1
10
1715.159700
20
757.278891
11
1714.908753
21
762.995733
0
LINE
8
Jet1
10
1714.908753
20
762.995733
11
1714.299925
21
768.679917
0
LINE
8
Jet1
10
1714.299925
20
768.679917
11
1713.335484
21
774.314663
0
LINE
8
Jet1
10
1713.335484
20
774.314663
11
1712.017700
21
779.883191
0
LINE
8
Jet1
10
1712.017700
20
779.883191
11
1661.129400
21
840.196291
0
LINE
8
Jet1
10
1661.129400
20
840.196291
11
1655.263450
21
842.625494
0
LINE
8
Jet1
10
1655.263450
20
842.625494
11
1649.249900
21
844.637561
0
LINE
8
Jet1
10
1649.249900
20
844.637561
11
1643.110800
21
846.225911
0
LINE
8
Jet1
10
1643.110800
20
846.225911
11
1640.001100
21
846.859131
0
LINE
8
Jet1
10
1640.001100
20
846.859131
11
1638.636200
21
847.541071
0
LINE
8
Jet1
10
1638.636200
20
847.541071
11
1637.777500
21
848.371111
0
LINE
8
Jet1
10
1637.777500
20
848.371111
11
1637.277400
21
849.436601
0
LINE
8
Jet1
10
1637.277400
20
849.436601
11
1636.988000
21
850.824901
0
LINE
8
Jet1
10
1636.988000
20
850.824901
11
1637.669700
21
870.446701
0
LINE
8
Jet1
10
1637.669700
20
870.446701
11
1637.526775
21
871.959152
0
LINE
8
Jet1
10
1637.526775
20
871.959152
11
1637.329163
21
872.737759
0
LINE
8
Jet1
10
1637.329163
20
872.737759
11
1637.051600
21
873.278681
0
LINE
8
Jet1
10
1637.051600
20
873.278681
11
1636.305675
21
873.913435
0
LINE
8
Jet1
10
1636.305675
20
873.913435
11
1635.387700
21
874.395391
0
LINE
8
Jet1
10
1635.387700
20
874.395391
11
1633.356400
21
874.981151
0
LINE
8
Jet1
10
1633.356400
20
874.981151
11
1631.066900
21
875.162671
0
LINE
8
Jet1
10
1631.066900
20
875.162671
11
1239.324900
21
893.152371
0
LINE
8
Jet1
10
1239.324900
20
893.152371
11
1235.766050
21
893.520785
0
LINE
8
Jet1
10
1235.766050
20
893.520785
11
1232.518000
21
894.280331
0
LINE
8
Jet1
10
1232.518000
20
894.280331
11
1229.529625
21
895.419379
0
LINE
8
Jet1
10
1229.529625
20
895.419379
11
1226.749600
21
896.926271
0
LINE
8
Jet1
10
1226.749600
20
896.926271
11
1224.126700
21
898.789356
0
LINE
8
Jet1
10
1224.126700
20
898.789356
11
1221.609700
21
900.996991
0
LINE
8
Jet1
10
1221.609700
20
900.996991
11
1219.147375
21
903.537534
0
LINE
8
Jet1
10
1219.147375
20
903.537534
11
1216.688500
21
906.399331
0
LINE
8
Jet1
10
1216.688500
20
906.399331
11
1211.544350
21
912.474190
0
LINE
8
Jet1
10
1211.544350
20
912.474190
11
1206.237300
21
918.376331
0
LINE
8
Jet1
10
1206.237300
20
918.376331
11
1200.771837
21
924.103450
0
LINE
8
Jet1
10
1200.771837
20
924.103450
11
1195.152700
21
929.653231
0
LINE
8
Jet1
10
1195.152700
20
929.653231
11
1189.384388
21
935.023282
0
LINE
8
Jet1
10
1189.384388
20
935.023282
11
1183.471400
21
940.211331
0
LINE
8
Jet1
10
1183.471400
20
940.211331
11
1174.002596
21
947.766915
0
LINE
8
Jet1
10
1174.002596
20
947.766915
11
1164.262615
21
954.862784
0
LINE
8
Jet1
10
1164.262615
20
954.862784
11
1154.270442
21
961.495588
0
LINE
8
Jet1
10
1154.270442
20
961.495588
11
1144.045059
21
967.661978
0
LINE
8
Jet1
10
1144.045059
20
967.661978
11
1133.605452
21
973.358604
0
LINE
8
Jet1
10
1133.605452
20
973.358604
11
1122.970605
21
978.582117
0
LINE
8
Jet1
10
1122.970605
20
978.582117
11
1112.159501
21
983.329168
0
LINE
8
Jet1
10
1112.159501
20
983.329168
11
1101.191125
21
987.596406
0
LINE
8
Jet1
10
1101.191125
20
987.596406
11
1090.084460
21
991.380483
0
LINE
8
Jet1
10
1090.084460
20
991.380483
11
1078.858492
21
994.678048
0
LINE
8
Jet1
10
1078.858492
20
994.678048
11
1067.532203
21
997.485752
0
LINE
8
Jet1
10
1067.532203
20
997.485752
11
1056.124578
21
999.800247
0
LINE
8
Jet1
10
1056.124578
20
999.800247
11
1044.654601
21
1001.618181
0
LINE
8
Jet1
10
1044.654601
20
1001.618181
11
1033.141257
21
1002.936206
0
LINE
8
Jet1
10
1033.141257
20
1002.936206
11
1021.603528
21
1003.750973
0
LINE
8
Jet1
10
1021.603528
20
1003.750973
11
1010.060400
21
1004.059131
0
LINE
8
Jet1
10
1010.060400
20
1004.059131
11
1010.060000
21
1004.060000
0
LINE
8
Jet2
10
4222.260000
20
997.540000
11
4142.522200
21
999.290790
0
LINE
8
Jet2
10
4142.522200
20
999.290790
11
4138.303338
21
997.299939
0
LINE
8
Jet2
10
4138.303338
20
997.299939
11
4134.200200
21
995.097250
0
LINE
8
Jet2
10
4134.200200
20
995.097250
11
4102.613500
21
999.195710
0
LINE
8
Jet2
10
4102.613500
20
999.195710
11
4078.560700
21
998.454150
0
LINE
8
Jet2
10
4078.560700
20
998.454150
11
3809.257700
21
759.055150
0
LINE
8
Jet2
10
3809.257700
20
759.055150
11
3806.202775
21
756.954669
0
LINE
8
Jet2
10
3806.202775
20
756.954669
11
3803.080800
21
755.057010
0
LINE
8
Jet2
10
3803.080800
20
755.057010
11
3799.903613
21
753.345614
0
LINE
8
Jet2
10
3799.903613
20
753.345614
11
3796.683300
21
751.803890
0
LINE
8
Jet2
10
3796.683300
20
751.803890
11
3790.160400
21
749.163200
0
LINE
8
Jet2
10
3790.160400
20
749.163200
11
3783.607400
21
747.002340
0
LINE
8
Jet2
10
3783.607400
20
747.002340
11
3775.373713
21
744.315225
0
LINE
8
Jet2
10
3775.373713
20
744.315225
11
3767.315000
21
741.292080
0
LINE
8
Jet2
10
3767.315000
20
741.292080
11
3759.438600
21
737.941878
0
LINE
8
Jet2
10
3759.438600
20
737.941878
11
3751.751800
21
734.273600
0
LINE
8
Jet2
10
3751.751800
20
734.273600
11
3744.261875
21
730.296234
0
LINE
8
Jet2
10
3744.261875
20
730.296234
11
3736.976100
21
726.018740
0
LINE
8
Jet2
10
3736.976100
20
726.018740
11
3731.431343
21
722.472038
0
LINE
8
Jet2
10
3731.431343
20
722.472038
11
3726.038895
21
718.761150
0
LINE
8
Jet2
10
3726.038895
20
718.761150
11
3720.800218
21
714.891233
0
LINE
8
Jet2
10
3720.800218
20
714.891233
11
3715.716775
21
710.867442
0
LINE
8
Jet2
10
3715.716775
20
710.867442
11
3710.790027
21
706.694934
0
LINE
8
Jet2
10
3710.790027
20
706.694934
11
3706.021436
21
702.378866
0
LINE
8
Jet2
10
3706.021436
20
702.378866
11
3701.412463
21
697.924392
0
LINE
8
Jet2
10
3701.412463
20
697.924392
11
3696.964570
21
693.336670
0
LINE
8
Jet2
10
3696.964570
20
693.336670
11
3692.679220
21
688.620855
0
LINE
8
Jet2
10
3692.679220
20
688.620855
11
3688.557874
21
683.782104
0
LINE
8
Jet2
10
3688.557874
20
683.782104
11
3684.601993
21
678.825572
0
LINE
8
Jet2
10
3684.601993
20
678.825572
11
3680.813040
21
673.756417
0
LINE
8
Jet2
10
3680.813040
20
673.756417
11
3677.192476
21
668.579793
0
LINE
8
Jet2
10
3677.192476
20
668.579793
11
3673.741763
21
663.300858
0
LINE
8
Jet2
10
3673.741763
20
663.300858
11
3670.462363
21
657.924768
0
LINE
8
Jet2
10
3670.462363
20
657.924768
11
3667.355738
21
652.456678
0
LINE
8
Jet2
10
3667.355738
20
652.456678
11
3664.423349
21
646.901744
0
LINE
8
Jet2
10
3664.423349
20
646.901744
11
3661.666658
21
641.265124
0
LINE
8
Jet2
10
3661.666658
20
641.265124
11
3659.087127
21
635.551972
0
LINE
8
Jet2
10
3659.087127
20
635.551972
11
3656.686218
21
629.767446
0
LINE
8
Jet2
10
3656.686218
20
629.767446
11
3654.465393
21
623.916701
0
LINE
8
Jet2
10
3654.465393
20
623.916701
11
3652.426113
21
618.004894
0
LINE
8
Jet2
10
3652.426113
20
618.004894
11
3650.569840
21
612.037180
0
LINE
8
Jet2
10
3650.569840
20
612.037180
11
3648.898036
21
606.018717
0
LINE
8
Jet2
10
3648.898036
20
606.018717
11
3647.412163
21
599.954659
0
LINE
8
Jet2
10
3647.412163
20
599.954659
11
3646.113682
21
593.850163
0
LINE
8
Jet2
10
3646.113682
20
593.850163
11
3645.004056
21
587.710386
0
LINE
8
Jet2
10
3645.004056
20
587.710386
11
3644.084745
21
581.540483
0
LINE
8
Jet2
10
3644.084745
20
581.540483
11
3643.357213
21
575.345611
0
LINE
8
Jet2
10
3643.357213
20
575.345611
11
3642.822920
21
569.130926
0
LINE
8
Jet2
10
3642.822920
20
569.130926
11
3642.483328
21
562.901583
0
LINE
8
Jet2
10
3642.483328
20
562.901583
11
3642.339900
21
556.662740
0
LINE
8
Jet2
10
3642.339900
20
556.662740
11
3642.598831
21
546.422475
0
LINE
8
Jet2
10
3642.598831
20
546.422475
11
3643.367287
21
536.316641
0
LINE
8
Jet2
10
3643.367287
20
536.316641
11
3644.632765
21
526.357742
0
LINE
8
Jet2
10
3644.632765
20
526.357742
11
3646.382763
21
516.558279
0
LINE
8
Jet2
10
3646.382763
20
516.558279
11
3648.604777
21
506.930757
0
LINE
8
Jet2
10
3648.604777
20
506.930757
11
3651.286305
21
497.487678
0
LINE
8
Jet2
10
3651.286305
20
497.487678
11
3654.414842
21
488.241547
0
LINE
8
Jet2
10
3654.414842
20
488.241547
11
3657.977886
21
479.204865
0
LINE
8
Jet2
10
3657.977886
20
479.204865
11
3661.962934
21
470.390136
0
LINE
8
Jet2
10
3661.962934
20
470.390136
11
3666.357482
21
461.809864
0
LINE
8
Jet2
10
3666.357482
20
461.809864
11
3671.149028
21
453.476551
0
LINE
8
Jet2
10
3671.149028
20
453.476551
11
3676.325069
21
445.402701
0
LINE
8
Jet2
10
3676.325069
20
445.402701
11
3681.873101
21
437.600817
0
LINE
8
Jet2
10
3681.873101
20
437.600817
11
3687.780621
21
430.083401
0
LINE
8
Jet2
10
3687.780621
20
430.083401
11
3694.035126
21
422.862958
0
LINE
8
Jet2
10
3694.035126
20
422.862958
11
3700.624113
21
415.951990
0
LINE
8
Jet2
10
3700.624113
20
415.951990
11
3707.535078
21
409.363001
0
LINE
8
Jet2
10
3707.535078
20
409.363001
11
3714.755520
21
403.108493
0
LINE
8
Jet2
10
3714.755520
20
403.108493
11
3722.272934
21
397.200970
0
LINE
8
Jet2
10
3722.272934
20
397.200970
11
3730.074817
21
391.652935
0
LINE
8
Jet2
10
3730.074817
20
391.652935
11
3738.148667
21
386.476892
0
LINE
8
Jet2
10
3738.148667
20
386.476892
11
3746.481980
21
381.685343
0
LINE
8
Jet2
10
3746.481980
20
381.685343
11
3755.062253
21
377.290791
0
LINE
8
Jet2
10
3755.062253
20
377.290791
11
3763.876983
21
373.305740
0
LINE
8
Jet2
10
3763.876983
20
373.305740
11
3772.913667
21
369.742693
0
LINE
8
Jet2
10
3772.913667
20
369.742693
11
3782.159801
21
366.614153
0
LINE
8
Jet2
10
3782.159801
20
366.614153
11
3791.602884
21
363.932623
0
LINE
8
Jet2
10
3791.602884
20
363.932623
11
3801.230410
21
361.710607
0
LINE
8
Jet2
10
3801.230410
20
361.710607
11
3811.029878
21
359.960608
0
LINE
8
Jet2
10
3811.029878
20
359.960608
11
3820.988785
21
358.695128
0
LINE
8
Jet2
10
3820.988785
20
358.695128
11
3831.094626
21
357.926671
0
LINE
8
Jet2
10
3831.094626
20
357.926671
11
3841.334900
21
357.667740
0
LINE
8
Jet2
10
3841.334900
20
357.667740
11
3851.575165
21
357.926647
0
LINE
8
Jet2
10
3851.575165
20
357.926647
11
3861.680999
21
358.695082
0
LINE
8
Jet2
10
3861.680999
20
358.695082
11
3871.639898
21
359.960540
0
LINE
8
Jet2
10
3871.639898
20
359.960540
11
3881.439361
21
361.710520
0
LINE
8
Jet2
10
3881.439361
20
361.710520
11
3891.066883
21
363.932518
0
LINE
8
Jet2
10
3891.066883
20
363.932518
11
3900.509962
21
366.614031
0
LINE
8
Jet2
10
3900.509962
20
366.614031
11
3909.756093
21
369.742555
0
LINE
8
Jet2
10
3909.756093
20
369.742555
11
3918.792775
21
373.305588
0
LINE
8
Jet2
10
3918.792775
20
373.305588
11
3927.607504
21
377.290626
0
LINE
8
Jet2
10
3927.607504
20
377.290626
11
3936.187776
21
381.685167
0
LINE
8
Jet2
10
3936.187776
20
381.685167
11
3944.521089
21
386.476706
0
LINE
8
Jet2
10
3944.521089
20
386.476706
11
3952.594939
21
391.652742
0
LINE
8
Jet2
10
3952.594939
20
391.652742
11
3960.396823
21
397.200770
0
LINE
8
Jet2
10
3960.396823
20
397.200770
11
3967.914239
21
403.108288
0
LINE
8
Jet2
10
3967.914239
20
403.108288
11
3975.134682
21
409.362792
0
LINE
8
Jet2
10
3975.134682
20
409.362792
11
3982.045650
21
415.951780
0
LINE
8
Jet2
10
3982.045650
20
415.951780
11
3988.634639
21
422.862748
0
LINE
8
Jet2
10
3988.634639
20
422.862748
11
3994.889147
21
430.083193
0
LINE
8
Jet2
10
3994.889147
20
430.083193
11
4000.796670
21
437.600611
0
LINE
8
Jet2
10
4000.796670
20
437.600611
11
4006.344705
21
445.402501
0
LINE
8
Jet2
10
4006.344705
20
445.402501
11
4011.520748
21
453.476357
0
LINE
8
Jet2
10
4011.520748
20
453.476357
11
4016.312297
21
461.809679
0
LINE
8
Jet2
10
4016.312297
20
461.809679
11
4020.706849
21
470.389961
0
LINE
8
Jet2
10
4020.706849
20
470.389961
11
4024.691900
21
479.204702
0
LINE
8
Jet2
10
4024.691900
20
479.204702
11
4028.254947
21
488.241397
0
LINE
8
Jet2
10
4028.254947
20
488.241397
11
4031.383487
21
497.487545
0
LINE
8
Jet2
10
4031.383487
20
497.487545
11
4034.065017
21
506.930641
0
LINE
8
Jet2
10
4034.065017
20
506.930641
11
4036.287033
21
516.558182
0
LINE
8
Jet2
10
4036.287033
20
516.558182
11
4038.037032
21
526.357666
0
LINE
8
Jet2
10
4038.037032
20
526.357666
11
4039.302512
21
536.316589
0
LINE
8
Jet2
10
4039.302512
20
536.316589
11
4040.070969
21
546.422448
0
LINE
8
Jet2
10
4040.070969
20
546.422448
11
4040.329900
21
556.662740
0
LINE
8
Jet2
10
4040.329900
20
556.662740
11
4040.376300
21
559.759770
0
LINE
8
Jet2
10
4040.376300
20
559.759770
11
4040.554100
21
562.360330
0
LINE
8
Jet2
10
4040.554100
20
562.360330
11
4040.923113
21
564.587491
0
LINE
8
Jet2
10
4040.923113
20
564.587491
11
4041.545700
21
566.564310
0
LINE
8
Jet2
10
4041.545700
20
566.564310
11
4042.483663
21
568.413851
0
LINE
8
Jet2
10
4042.483663
20
568.413851
11
4043.798800
21
570.259170
0
LINE
8
Jet2
10
4043.798800
20
570.259170
11
4045.553000
21
572.223344
0
LINE
8
Jet2
10
4045.553000
20
572.223344
11
4047.807900
21
574.429430
0
LINE
8
Jet2
10
4047.807900
20
574.429430
11
4288.310900
21
799.900430
0
LINE
8
Jet2
10
4288.310900
20
799.900430
11
4289.737100
21
801.489200
0
LINE
8
Jet2
10
4289.737100
20
801.489200
11
4290.766400
21
803.164850
0
LINE
8
Jet2
10
4290.766400
20
803.164850
11
4291.388088
21
804.901281
0
LINE
8
Jet2
10
4291.388088
20
804.901281
11
4291.591200
21
806.672400
0
LINE
8
Jet2
10
4291.591200
20
806.672400
11
4291.363675
21
808.452113
0
LINE
8
Jet2
10
4291.363675
20
808.452113
11
4290.698600
21
810.214320
0
LINE
8
Jet2
10
4290.698600
20
810.214320
11
4289.581175
21
811.932925
0
LINE
8
Jet2
10
4289.581175
20
811.932925
11
4288.001900
21
813.581840
0
LINE
8
Jet2
10
4288.001900
20
813.581840
11
4263.049500
21
832.102440
0
LINE
8
Jet2
10
4263.049500
20
832.102440
11
4262.395800
21
889.650340
0
LINE
8
Jet2
10
4262.395800
20
889.650340
11
4264.001906
21
893.590605
0
LINE
8
Jet2
10
4264.001906
20
893.590605
11
4265.399977
21
897.595140
0
LINE
8
Jet2
10
4265.399977
20
897.595140
11
4266.588406
21
901.656319
0
LINE
8
Jet2
10
4266.588406
20
901.656319
11
4267.565588
21
905.766515
0
LINE
8
Jet2
10
4267.565588
20
905.766515
11
4268.329914
21
909.918102
0
LINE
8
Jet2
10
4268.329914
20
909.918102
11
4268.879780
21
914.103453
0
LINE
8
Jet2
10
4268.879780
20
914.103453
11
4269.213577
21
918.314941
0
LINE
8
Jet2
10
4269.213577
20
918.314941
11
4269.329700
21
922.544940
0
LINE
8
Jet2
10
4269.329700
20
922.544940
11
4269.103227
21
928.403312
0
LINE
8
Jet2
10
4269.103227
20
928.403312
11
4268.465388
21
934.183965
0
LINE
8
Jet2
10
4268.465388
20
934.183965
11
4267.426805
21
939.870081
0
LINE
8
Jet2
10
4267.426805
20
939.870081
11
4265.998100
21
945.444840
0
LINE
8
Jet2
10
4265.998100
20
945.444840
11
4264.189811
21
950.891481
0
LINE
8
Jet2
10
4264.189811
20
950.891481
11
4262.012437
21
956.193171
0
LINE
8
Jet2
10
4262.012437
20
956.193171
11
4259.476545
21
961.333095
0
LINE
8
Jet2
10
4259.476545
20
961.333095
11
4256.592700
21
966.294440
0
LINE
8
Jet2
10
4256.592700
20
966.294440
11
4253.371445
21
971.060435
0
LINE
8
Jet2
10
4253.371445
20
971.060435
11
4249.823313
21
975.614255
0
LINE
8
Jet2
10
4249.823313
20
975.614255
11
4245.958848
21
979.939093
0
LINE
8
Jet2
10
4245.958848
20
979.939093
11
4241.788600
21
984.018140
0
LINE
8
Jet2
10
4241.788600
20
984.018140
11
4237.323116
21
987.834598
0
LINE
8
Jet2
10
4237.323116
20
987.834598
11
4232.572950
21
991.371654
0
LINE
8
Jet2
10
4232.572950
20
991.371654
11
4227.548659
21
994.612503
0
LINE
8
Jet2
10
4227.548659
20
994.612503
11
4222.260800
21
997.540340
0
LINE
8
Jet2
10
4222.260800
20
997.540340
11
4222.260000
21
997.540000
0
LINE
8
Outlet
10
9322.540000
20
5859.860000
11
9310.981033
21
5859.594424
0
LINE
8
Outlet
10
9310.981033
20
5859.594424
11
9299.537817
21
5858.820706
0
LINE
8
Outlet
10
9299.537817
20
5858.820706
11
9288.222441
21
5857.548923
0
LINE
8
Outlet
10
9288.222441
20
5857.548923
11
9277.046991
21
5855.789156
0
LINE
8
Outlet
10
9277.046991
20
5855.789156
11
9266.023556
21
5853.551481
0
LINE
8
Outlet
10
9266.023556
20
5853.551481
11
9255.164222
21
5850.845977
0
LINE
8
Outlet
10
9255.164222
20
5850.845977
11
9244.481077
21
5847.682724
0
LINE
8
Outlet
10
9244.481077
20
5847.682724
11
9233.986209
21
5844.071799
0
LINE
8
Outlet
10
9233.986209
20
5844.071799
11
9223.691706
21
5840.023280
0
LINE
8
Outlet
10
9223.691706
20
5840.023280
11
9213.609654
21
5835.547247
0
LINE
8
Outlet
10
9213.609654
20
5835.547247
11
9203.752142
21
5830.653777
0
LINE
8
Outlet
10
9203.752142
20
5830.653777
11
9194.131256
21
5825.352949
0
LINE
8
Outlet
10
9194.131256
20
5825.352949
11
9184.759086
21
5819.654842
0
LINE
8
Outlet
10
9184.759086
20
5819.654842
11
9175.647717
21
5813.569533
0
LINE
8
Outlet
10
9175.647717
20
5813.569533
11
9166.809237
21
5807.107102
0
LINE
8
Outlet
10
9166.809237
20
5807.107102
11
9158.255735
21
5800.277627
0
LINE
8
Outlet
10
9158.255735
20
5800.277627
11
9149.999297
21
5793.091186
0
LINE
8
Outlet
10
9149.999297
20
5793.091186
11
9142.052011
21
5785.557857
0
LINE
8
Outlet
10
9142.052011
20
5785.557857
11
9134.425965
21
5777.687719
0
LINE
8
Outlet
10
9134.425965
20
5777.687719
11
9127.133246
21
5769.490851
0
LINE
8
Outlet
10
9127.133246
20
5769.490851
11
9120.185942
21
5760.977331
0
LINE
8
Outlet
10
9120.185942
20
5760.977331
11
9113.596140
21
5752.157237
0
LINE
8
Outlet
10
9113.596140
20
5752.157237
11
9107.375928
21
5743.040648
0
LINE
8
Outlet
10
9107.375928
20
5743.040648
11
9101.537393
21
5733.637641
0
LINE
8
Outlet
10
9101.537393
20
5733.637641
11
9096.092623
21
5723.958297
0
LINE
8
Outlet
10
9096.092623
20
5723.958297
11
9091.053705
21
5714.012693
0
LINE
8
Outlet
10
9091.053705
20
5714.012693
11
9086.432727
21
5703.810907
0
LINE
8
Outlet
10
9086.432727
20
5703.810907
11
9082.241777
21
5693.363018
0
LINE
8
Outlet
10
9082.241777
20
5693.363018
11
9078.492941
21
5682.679104
0
LINE
8
Outlet
10
9078.492941
20
5682.679104
11
9075.198308
21
5671.769245
0
LINE
8
Outlet
10
9075.198308
20
5671.769245
11
9072.369965
21
5660.643517
0
LINE
8
Outlet
10
9072.369965
20
5660.643517
11
9070.020000
21
5649.312000
0
LINE
8
Outlet
10
9070.020000
20
5649.312000
11
9070.453000
21
5553.699800
0
LINE
8
Outlet
10
9070.453000
20
5553.699800
11
9072.886521
21
5542.469004
0
LINE
8
Outlet
10
9072.886521
20
5542.469004
11
9075.790246
21
5531.444615
0
LINE
8
Outlet
10
9075.790246
20
5531.444615
11
9079.152280
21
5520.636463
0
LINE
8
Outlet
10
9079.152280
20
5520.636463
11
9082.960725
21
5510.054375
0
LINE
8
Outlet
10
9082.960725
20
5510.054375
11
9087.203685
21
5499.708180
0
LINE
8
Outlet
10
9087.203685
20
5499.708180
11
9091.869263
21
5489.607705
0
LINE
8
Outlet
10
9091.869263
20
5489.607705
11
9096.945563
21
5479.762780
0
LINE
8
Outlet
10
9096.945563
20
5479.762780
11
9102.420688
21
5470.183232
0
LINE
8
Outlet
10
9102.420688
20
5470.183232
11
9108.282742
21
5460.878890
0
LINE
8
Outlet
10
9108.282742
20
5460.878890
11
9114.519827
21
5451.859582
0
LINE
8
Outlet
10
9114.519827
20
5451.859582
11
9121.120047
21
5443.135136
0
LINE
8
Outlet
10
9121.120047
20
5443.135136
11
9128.071506
21
5434.715381
0
LINE
8
Outlet
10
9128.071506
20
5434.715381
11
9135.362307
21
5426.610144
0
LINE
8
Outlet
10
9135.362307
20
5426.610144
11
9142.980553
21
5418.829255
0
LINE
8
Outlet
10
9142.980553
20
5418.829255
11
9150.914348
21
5411.382540
0
LINE
8
Outlet
10
9150.914348
20
5411.382540
11
9159.151795
21
5404.279830
0
LINE
8
Outlet
10
9159.151795
20
5404.279830
11
9167.680998
21
5397.530951
0
LINE
8
Outlet
10
9167.680998
20
5397.530951
11
9176.490059
21
5391.145732
0
LINE
8
Outlet
10
9176.490059
20
5391.145732
11
9185.567083
21
5385.134001
0
LINE
8
Outlet
10
9185.567083
20
5385.134001
11
9194.900173
21
5379.505587
0
LINE
8
Outlet
10
9194.900173
20
5379.505587
11
9204.477431
21
5374.270318
0
LINE
8
Outlet
10
9204.477431
20
5374.270318
11
9214.286962
21
5369.438022
0
LINE
8
Outlet
10
9214.286962
20
5369.438022
11
9224.316869
21
5365.018527
0
LINE
8
Outlet
10
9224.316869
20
5365.018527
11
9234.555255
21
5361.021662
0
LINE
8
Outlet
10
9234.555255
20
5361.021662
11
9244.990223
21
5357.457255
0
LINE
8
Outlet
10
9244.990223
20
5357.457255
11
9255.609878
21
5354.335134
0
LINE
8
Outlet
10
9255.609878
20
5354.335134
11
9266.402322
21
5351.665127
0
LINE
8
Outlet
10
9266.402322
20
5351.665127
11
9277.355658
21
5349.457064
0
LINE
8
Outlet
10
9277.355658
20
5349.457064
11
9288.457991
21
5347.720771
0
LINE
8
Outlet
10
9288.457991
20
5347.720771
11
9299.697423
21
5346.466077
0
LINE
8
Outlet
10
9299.697423
20
5346.466077
11
9311.062059
21
5345.702811
0
LINE
8
Outlet
10
9311.062059
20
5345.702811
11
9322.540000
21
5345.440800
0
LINE
8
Outlet
10
9322.540000
20
5345.440800
11
9329.172338
21
5345.524832
0
LINE
8
Outlet
10
9329.172338
20
5345.524832
11
9335.763296
21
5345.775530
0
LINE
8
Outlet
10
9335.763296
20
5345.775530
11
9342.310856
21
5346.190873
0
LINE
8
Outlet
10
9342.310856
20
5346.190873
11
9348.813001
21
5346.768842
0
LINE
8
Outlet
10
9348.813001
20
5346.768842
11
9355.267711
21
5347.507416
0
LINE
8
Outlet
10
9355.267711
20
5347.507416
11
9361.672968
21
5348.404575
0
LINE
8
Outlet
10
9361.672968
20
5348.404575
11
9368.026755
21
5349.458299
0
LINE
8
Outlet
10
9368.026755
20
5349.458299
11
9374.327054
21
5350.666568
0
LINE
8
Outlet
10
9374.327054
20
5350.666568
11
9380.571845
21
5352.027362
0
LINE
8
Outlet
10
9380.571845
20
5352.027362
11
9386.759111
21
5353.538660
0
LINE
8
Outlet
10
9386.759111
20
5353.538660
11
9392.886834
21
5355.198444
0
LINE
8
Outlet
10
9392.886834
20
5355.198444
11
9398.952996
21
5357.004691
0
LINE
8
Outlet
10
9398.952996
20
5357.004691
11
9404.955578
21
5358.955383
0
LINE
8
Outlet
10
9404.955578
20
5358.955383
11
9410.892562
21
5361.048500
0
LINE
8
Outlet
10
9410.892562
20
5361.048500
11
9416.761930
21
5363.282020
0
LINE
8
Outlet
10
9416.761930
20
5363.282020
11
9422.561664
21
5365.653925
0
LINE
8
Outlet
10
9422.561664
20
5365.653925
11
9428.289746
21
5368.162194
0
LINE
8
Outlet
10
9428.289746
20
5368.162194
11
9433.944157
21
5370.804806
0
LINE
8
Outlet
10
9433.944157
20
5370.804806
11
9439.522880
21
5373.579742
0
LINE
8
Outlet
10
9439.522880
20
5373.579742
11
9445.023896
21
5376.484982
0
LINE
8
Outlet
10
9445.023896
20
5376.484982
11
9450.445187
21
5379.518505
0
LINE
8
Outlet
10
9450.445187
20
5379.518505
11
9455.784735
21
5382.678292
0
LINE
8
Outlet
10
9455.784735
20
5382.678292
11
9466.210528
21
5389.368574
0
LINE
8
Outlet
10
9466.210528
20
5389.368574
11
9476.285131
21
5396.539669
0
LINE
8
Outlet
10
9476.285131
20
5396.539669
11
9485.992397
21
5404.175416
0
LINE
8
Outlet
10
9485.992397
20
5404.175416
11
9495.316182
21
5412.259652
0
LINE
8
Outlet
10
9495.316182
20
5412.259652
11
9504.240340
21
5420.776219
0
LINE
8
Outlet
10
9504.240340
20
5420.776219
11
9512.748727
21
5429.708954
0
LINE
8
Outlet
10
9512.748727
20
5429.708954
11
9520.825195
21
5439.041696
0
LINE
8
Outlet
10
9520.825195
20
5439.041696
11
9528.453601
21
5448.758285
0
LINE
8
Outlet
10
9528.453601
20
5448.758285
11
9535.617798
21
5458.842561
0
LINE
8
Outlet
10
9535.617798
20
5458.842561
11
9542.301642
21
5469.278361
0
LINE
8
Outlet
10
9542.301642
20
5469.278361
11
9545.458385
21
5474.623033
0
LINE
8
Outlet
10
9545.458385
20
5474.623033
11
9548.488986
21
5480.049525
0
LINE
8
Outlet
10
9548.488986
20
5480.049525
11
9551.391426
21
5485.555819
0
LINE
8
Outlet
10
9551.391426
20
5485.555819
11
9554.163686
21
5491.139893
0
LINE
8
Outlet
10
9554.163686
20
5491.139893
11
9556.803749
21
5496.799728
0
LINE
8
Outlet
10
9556.803749
20
5496.799728
11
9559.309596
21
5502.533303
0
LINE
8
Outlet
10
9559.309596
20
5502.533303
11
9561.679210
21
5508.338599
0
LINE
8
Outlet
10
9561.679210
20
5508.338599
11
9563.910571
21
5514.213595
0
LINE
8
Outlet
10
9563.910571
20
5514.213595
11
9566.001663
21
5520.156270
0
LINE
8
Outlet
10
9566.001663
20
5520.156270
11
9567.950466
21
5526.164607
0
LINE
8
Outlet
10
9567.950466
20
5526.164607
11
9569.754963
21
5532.236582
0
LINE
8
Outlet
10
9569.754963
20
5532.236582
11
9571.413135
21
5538.370178
0
LINE
8
Outlet
10
9571.413135
20
5538.370178
11
9572.922964
21
5544.563374
0
LINE
8
Outlet
10
9572.922964
20
5544.563374
11
9574.282432
21
5550.814149
0
LINE
8
Outlet
10
9574.282432
20
5550.814149
11
9575.489521
21
5557.120483
0
LINE
8
Outlet
10
9575.489521
20
5557.120483
11
9576.542212
21
5563.480357
0
LINE
8
Outlet
10
9576.542212
20
5563.480357
11
9577.438488
21
5569.891750
0
LINE
8
Outlet
10
9577.438488
20
5569.891750
11
9578.176331
21
5576.352642
0
LINE
8
Outlet
10
9578.176331
20
5576.352642
11
9578.753721
21
5582.861013
0
LINE
8
Outlet
10
9578.753721
20
5582.861013
11
9579.168642
21
5589.414843
0
LINE
8
Outlet
10
9579.168642
20
5589.414843
11
9579.419074
21
5596.012112
0
LINE
8
Outlet
10
9579.419074
20
5596.012112
11
9579.503000
21
5602.650800
0
LINE
8
Outlet
10
9579.503000
20
5602.650800
11
9579.419074
21
5609.289488
0
LINE
8
Outlet
10
9579.419074
20
5609.289488
11
9579.168642
21
5615.886757
0
LINE
8
Outlet
10
9579.168642
20
5615.886757
11
9578.753721
21
5622.440587
0
LINE
8
Outlet
10
9578.753721
20
5622.440587
11
9578.176331
21
5628.948958
0
LINE
8
Outlet
10
9578.176331
20
5628.948958
11
9577.438488
21
5635.409850
0
LINE
8
Outlet
10
9577.438488
20
5635.409850
11
9576.542212
21
5641.821243
0
LINE
8
Outlet
10
9576.542212
20
5641.821243
11
9575.489521
21
5648.181117
0
LINE
8
Outlet
10
9575.489521
20
5648.181117
11
9574.282432
21
5654.487451
0
LINE
8
Outlet
10
9574.282432
20
5654.487451
11
9572.922964
21
5660.738226
0
LINE
8
Outlet
10
9572.922964
20
5660.738226
11
9571.413135
21
5666.931422
0
LINE
8
Outlet
10
9571.413135
20
5666.931422
11
9569.754963
21
5673.065018
0
LINE
8
Outlet
10
9569.754963
20
5673.065018
11
9567.950466
21
5679.136993
0
LINE
8
Outlet
10
9567.950466
20
5679.136993
11
9566.001663
21
5685.145330
0
LINE
8
Outlet
10
9566.001663
20
5685.145330
11
9563.910571
21
5691.088005
0
LINE
8
Outlet
10
9563.910571
20
5691.088005
11
9561.679210
21
5696.963001
0
LINE
8
Outlet
10
9561.679210
20
5696.963001
11
9559.309596
21
5702.768297
0
LINE
8
Outlet
10
9559.309596
20
5702.768297
11
9556.803749
21
5708.501872
0
LINE
8
Outlet
10
9556.803749
20
5708.501872
11
9554.163686
21
5714.161707
0
LINE
8
Outlet
10
9554.163686
20
5714.161707
11
9551.391426
21
5719.745781
0
LINE
8
Outlet
10
9551.391426
20
5719.745781
11
9548.488986
21
5725.252075
0
LINE
8
Outlet
10
9548.488986
20
5725.252075
11
9545.458385
21
5730.678567
0
LINE
8
Outlet
10
9545.458385
20
5730.678567
11
9542.301642
21
5736.023239
0
LINE
8
Outlet
10
9542.301642
20
5736.023239
11
9535.617798
21
5746.459039
0
LINE
8
Outlet
10
9535.617798
20
5746.459039
11
9528.453601
21
5756.543315
0
LINE
8
Outlet
10
9528.453601
20
5756.543315
11
9520.825195
21
5766.259904
0
LINE
8
Outlet
10
9520.825195
20
5766.259904
11
9512.748727
21
5775.592646
0
LINE
8
Outlet
10
9512.748727
20
5775.592646
11
9504.240340
21
5784.525381
0
LINE
8
Outlet
10
9504.240340
20
5784.525381
11
9495.316182
21
5793.041948
0
LINE
8
Outlet
10
9495.316182
20
5793.041948
11
9485.992397
21
5801.126184
0
LINE
8
Outlet
10
9485.992397
20
5801.126184
11
9476.285131
21
5808.761931
0
LINE
8
Outlet
10
9476.285131
20
5808.761931
11
9466.210528
21
5815.933026
0
LINE
8
Outlet
10
9466.210528
20
5815.933026
11
9455.784735
21
5822.623308
0
LINE
8
Outlet
10
9455.784735
20
5822.623308
11
9450.445187
21
5825.783095
0
LINE
8
Outlet
10
9450.445187
20
5825.783095
11
9445.023896
21
5828.816618
0
LINE
8
Outlet
10
9445.023896
20
5828.816618
11
9439.522880
21
5831.721858
0
LINE
8
Outlet
10
9439.522880
20
5831.721858
11
9433.944157
21
5834.496794
0
LINE
8
Outlet
10
9433.944157
20
5834.496794
11
9428.289746
21
5837.139406
0
LINE
8
Outlet
10
9428.289746
20
5837.139406
11
9422.561664
21
5839.647675
0
LINE
8
Outlet
10
9422.561664
20
5839.647675
11
9416.761930
21
5842.019580
0
LINE
8
Outlet
10
9416.761930
20
5842.019580
11
9410.892562
21
5844.253100
0
LINE
8
Outlet
10
9410.892562
20
5844.253100
11
9404.955578
21
5846.346217
0
LINE
8
Outlet
10
9404.955578
20
5846.346217
11
9398.952996
21
5848.296909
0
LINE
8
Outlet
10
9398.952996
20
5848.296909
11
9392.886834
21
5850.103156
0
LINE
8
Outlet
10
9392.886834
20
5850.103156
11
9386.759111
21
5851.762940
0
LINE
8
Outlet
10
9386.759111
20
5851.762940
11
9380.571845
21
5853.274238
0
LINE
8
Outlet
10
9380.571845
20
5853.274238
11
9374.327054
21
5854.635032
0
LINE
8
Outlet
10
9374.327054
20
5854.635032
11
9368.026755
21
5855.843301
0
LINE
8
Outlet
10
9368.026755
20
5855.843301
11
9361.672968
21
5856.897025
0
LINE
8
Outlet
10
9361.672968
20
5856.897025
11
9355.267711
21
5857.794184
0
LINE
8
Outlet
10
9355.267711
20
5857.794184
11
9348.813001
21
5858.532758
0
LINE
8
Outlet
10
9348.813001
20
5858.532758
11
9342.310856
21
5859.110727
0
LINE
8
Outlet
10
9342.310856
20
5859.110727
11
9335.763296
21
5859.526070
0
LINE
8
Outlet
10
9335.763296
20
5859.526070
11
9329.172338
21
5859.776768
0
LINE
8
Outlet
10
9329.172338
20
5859.776768
11
9322.540000
21
5859.860800
0
LINE
8
Outlet
10
9322.540000
20
5859.860800
11
9322.540000
21
5859.860000
 0 
ENDSEC
 0 
EOF